<svg width="144" height="96" viewBox="0 0 144 96" fill="none" xmlns="http://www.w3.org/2000/svg">
<g clip-path="url(#clip0_6_7969)">
<path d="M0 0L144 0L144 96L0 96L0 0Z" fill="white"/>
<path d="M0 0L144 0V31.9999L0 31.9999L0 0Z" fill="black"/>
<path d="M0 64L144 64V95.9999L0 95.9999L0 64Z" fill="#007A3D"/>
<path d="M76 48L0 96L0 0M29.6571 41.1429L28.1714 44.9142L24.3047 43.7332L26.3238 47.238L22.9716 49.5237L26.9906 50.1333L26.6859 54.1713L29.6573 51.4284L32.6477 54.1713L32.343 50.1333L36.3431 49.5237L33.0098 47.238L35.029 43.7332L31.1623 44.9142L29.6571 41.1429Z" fill="#CE1126"/>
</g>
<defs>
<clipPath id="clip0_6_7969">
<rect width="144" height="96" fill="white"/>
</clipPath>
</defs>
</svg>
