<svg width="144" height="96" viewBox="0 0 144 96" fill="none" xmlns="http://www.w3.org/2000/svg">
<g clip-path="url(#clip0_6_8967)">
<path d="M144 -4.36328L0 -4.36328L0 100.364L144 100.364L144 -4.36328Z" fill="#CB0028"/>
<path d="M65.4545 100.364L39.2727 100.364L39.2727 61.0913H0L0 34.9094L39.2727 34.9094L39.2727 -4.36328L65.4545 -4.36328V34.9094L144 34.9094V61.0913L65.4545 61.0913V100.364Z" fill="white"/>
<path d="M58.9091 100.364H45.8182L45.8182 54.5458L0 54.5458L0 41.4549L45.8182 41.4549L45.8182 -4.36328L58.9091 -4.36328L58.9091 41.4549L144 41.4549V54.5458L58.9091 54.5458L58.9091 100.364Z" fill="#00205B"/>
</g>
<defs>
<clipPath id="clip0_6_8967">
<rect width="144" height="96" fill="white"/>
</clipPath>
</defs>
</svg>
