<svg width="144" height="96" viewBox="0 0 144 96" fill="none" xmlns="http://www.w3.org/2000/svg">
<g clip-path="url(#clip0_6_8987)">
<path d="M-15.2734 0L159.272 0L159.272 96L-15.2734 96L-15.2734 0Z" fill="#0038A8"/>
<path d="M-15.2734 0L159.272 0V64L-15.2734 64L-15.2734 0Z" fill="white"/>
<path d="M-15.2734 0L159.272 0V32L-15.2734 32L-15.2734 0Z" fill="#D52B1E"/>
<path d="M84.168 47.9964C84.168 54.7193 78.7222 60.168 71.9993 60.168C65.2764 60.168 59.832 54.7193 59.832 47.9964C59.832 41.2735 65.2808 35.832 71.9993 35.832C78.7179 35.832 84.168 41.2779 84.168 47.9964Z" fill="white"/>
<path d="M71.9989 60.4352C65.1421 60.4352 59.5625 54.8556 59.5625 47.996C59.5625 41.1363 65.1407 35.5625 71.9989 35.5625C78.857 35.5625 84.4352 41.1392 84.4352 47.996C84.4352 54.8527 78.8556 60.4352 71.9989 60.4352ZM71.9989 36.0992C65.4374 36.0992 60.0992 41.436 60.0992 47.996C60.0992 54.556 65.4374 59.8985 71.9989 59.8985C78.5603 59.8985 83.8985 54.5589 83.8985 47.996C83.8985 41.433 78.5603 36.0992 71.9989 36.0992Z" fill="black"/>
<path d="M77.8827 46.1097C77.5874 46.098 77.5859 46.4239 77.5859 46.4239C77.5859 46.4239 77.5961 46.3279 77.5874 46.437C77.5816 46.5446 77.6354 46.8079 77.8536 46.8297C78.0834 46.85 78.1605 46.581 78.1619 46.45C78.1619 46.3977 78.1445 46.1155 77.8827 46.1097Z" fill="#009B3A"/>
<path d="M77.8768 46.9033C77.8666 46.9033 77.8564 46.9033 77.8463 46.9033C77.5786 46.8771 77.5073 46.576 77.5146 46.4349C77.5146 46.432 77.5146 46.4276 77.5146 46.4247H77.5117C77.5117 46.4175 77.5146 46.2385 77.631 46.1265C77.6964 46.064 77.7823 46.0364 77.8826 46.0393C78.1575 46.0465 78.2317 46.3025 78.2317 46.4509C78.2317 46.5411 78.1968 46.7185 78.0804 46.8247C78.0237 46.8771 77.9524 46.9033 77.8754 46.9033H77.8768ZM77.6601 46.3884C77.6601 46.4058 77.6601 46.4247 77.6586 46.4422C77.6543 46.5193 77.695 46.7418 77.8608 46.7578C77.9088 46.7622 77.951 46.7491 77.9859 46.7171C78.0601 46.6502 78.0892 46.5193 78.0906 46.4495C78.0906 46.4058 78.0804 46.1862 77.8812 46.1818C77.8186 46.1789 77.7706 46.1949 77.7343 46.2298C77.6863 46.2764 77.6688 46.3462 77.6615 46.3884H77.6601Z" fill="black"/>
<path d="M64.3661 52.8699L64.2614 52.6968C64.2512 52.6779 64.2236 52.6459 64.1799 52.5993C64.1596 52.5761 64.1305 52.5615 64.0999 52.5601C64.0665 52.5557 64.033 52.5615 64.0054 52.579C63.9647 52.6037 63.9385 52.6371 63.9341 52.6764C63.9268 52.7171 63.9457 52.7739 63.9908 52.851L64.0956 53.0299L64.3647 52.8699H64.3661ZM65.3959 52.8102L64.0723 53.5971L63.6679 52.9179C63.5923 52.7899 63.5472 52.6895 63.5297 52.6095C63.5094 52.5281 63.5181 52.4524 63.553 52.3768C63.5865 52.2997 63.6476 52.2371 63.7319 52.1862C63.7974 52.147 63.8716 52.1237 63.9472 52.1193C64.0214 52.1193 64.0883 52.1382 64.1552 52.1717C64.1959 52.195 64.2425 52.2313 64.2948 52.2837C64.2832 52.227 64.2759 52.1819 64.2788 52.1484C64.2832 52.1281 64.2919 52.0946 64.3108 52.0422C64.3283 51.9928 64.3457 51.9579 64.3559 51.9361L64.6236 51.5099L64.897 51.9724L64.6236 52.4321C64.5901 52.4902 64.5683 52.5353 64.5654 52.5659C64.5639 52.6095 64.5727 52.6459 64.5945 52.6837L64.6177 52.7215L65.1545 52.403L65.3988 52.8117L65.3959 52.8102ZM63.0657 51.7324L62.6614 50.5251L62.9727 50.4204L63.2257 51.1768L63.4599 51.0982L63.2214 50.3957L63.521 50.2982L63.7567 50.9979L64.0432 50.9048L63.7843 50.1251L64.1145 50.0131L64.5247 51.2437L63.0643 51.7324H63.0657ZM63.1094 49.2742L63.0934 49.1608C63.0832 49.0662 63.0599 49.0051 63.025 48.9746C62.9901 48.9426 62.9421 48.9281 62.8941 48.9339C62.8476 48.9411 62.8083 48.9615 62.7792 48.995C62.7487 49.0313 62.7385 49.0924 62.7516 49.1811L62.7647 49.3164L63.1094 49.2742ZM62.5101 49.8255L62.4185 49.0415C62.3996 48.8728 62.4243 48.739 62.4941 48.6444C62.5668 48.5499 62.6788 48.4931 62.8272 48.4771C62.9814 48.4582 63.1094 48.4917 63.2054 48.5731C63.3014 48.6561 63.3625 48.7942 63.3858 48.9833L63.4148 49.2422L63.9821 49.1768L64.0374 49.651L62.5101 49.8284V49.8255ZM62.4563 46.8233L62.5057 46.3506L63.4192 46.4495C63.505 46.4597 63.5894 46.483 63.6679 46.5193C63.7465 46.5542 63.8134 46.6081 63.8657 46.675C63.9181 46.7433 63.9559 46.8088 63.9734 46.8786C63.9967 46.9717 64.0039 47.0851 63.9879 47.2146C63.9792 47.2961 63.9647 47.3761 63.9457 47.4546C63.9268 47.5419 63.8963 47.6131 63.8599 47.6684C63.8207 47.7266 63.7697 47.7775 63.7116 47.8182C63.6548 47.8575 63.5908 47.8851 63.5239 47.8982C63.4221 47.9186 63.3363 47.923 63.2607 47.9142L62.3516 47.8182L62.401 47.3441L63.3348 47.4459C63.4192 47.4546 63.4861 47.4386 63.5385 47.3964C63.5908 47.3542 63.6199 47.2946 63.6301 47.2146C63.6388 47.1302 63.6214 47.0648 63.5807 47.0153C63.5399 46.963 63.4774 46.9353 63.393 46.9251L62.4607 46.8248L62.4563 46.8233ZM63.9865 45.5302L64.0679 45.3019C64.0927 45.2248 64.0999 45.1651 64.0825 45.1215C64.0665 45.0808 64.0316 45.0488 63.9894 45.0371C63.9428 45.0211 63.9065 45.0241 63.8687 45.0473C63.8308 45.0706 63.7974 45.1201 63.7712 45.1971L63.6897 45.427L63.985 45.5302H63.9865ZM63.4163 45.3295L63.4847 45.1361C63.5079 45.0648 63.5152 45.011 63.4977 44.9761C63.4847 44.9411 63.4556 44.9135 63.409 44.9004C63.3727 44.8859 63.3319 44.8873 63.297 44.9048C63.2636 44.9251 63.2359 44.9673 63.2127 45.0342L63.1399 45.2335L63.4163 45.3295ZM62.6905 45.5855L62.9828 44.7433C63.0337 44.6037 63.105 44.5091 63.2025 44.4568C63.2941 44.4073 63.4017 44.4001 63.4992 44.435C63.5836 44.4684 63.6476 44.5193 63.6912 44.595C63.7174 44.6444 63.7334 44.7099 63.7334 44.7855C63.7945 44.6895 63.8643 44.6284 63.9414 44.6022C64.0199 44.5746 64.1072 44.5761 64.2003 44.6081C64.273 44.6328 64.3356 44.675 64.3836 44.7302C64.4301 44.7884 64.4607 44.8524 64.4752 44.9237C64.4825 44.9702 64.4781 45.0328 64.4621 45.1099C64.4374 45.2175 64.4243 45.2859 64.4112 45.3179L64.1407 46.0931L62.689 45.5855H62.6905ZM63.4745 43.6146L63.7232 43.2088L64.7137 43.8095L65.0992 43.1753L65.4221 43.3731L64.7937 44.4117L63.4745 43.6146ZM64.4912 42.1004L64.7967 41.7353L65.9705 42.7273L65.6636 43.0924L64.4897 42.1004H64.4912ZM66.6236 41.2728L67.0236 41.1011C67.0745 41.2088 67.1036 41.3106 67.1079 41.4124C67.1123 41.5084 67.0919 41.6044 67.0512 41.6917C67.0047 41.7804 66.9305 41.8662 66.8287 41.9564C66.6977 42.0626 66.5785 42.1324 66.465 42.163C66.353 42.1921 66.2279 42.1848 66.0883 42.1411C65.953 42.0961 65.825 42.0001 65.7014 41.8546C65.5399 41.6568 65.4657 41.4648 65.4817 41.2742C65.4977 41.0808 65.601 40.9077 65.7916 40.7477C65.9414 40.6226 66.081 40.5586 66.2192 40.547C66.353 40.5339 66.4956 40.5746 66.6396 40.6648L66.3763 41.0051C66.3356 40.979 66.3036 40.9615 66.2745 40.9557C66.2323 40.9426 66.1887 40.9426 66.1465 40.9542C66.1028 40.9644 66.0636 40.9833 66.0301 41.0124C65.9472 41.0822 65.9108 41.1681 65.9225 41.2713C65.9297 41.3484 65.9792 41.4386 66.0636 41.5448C66.1741 41.6757 66.2701 41.7484 66.3487 41.7644C66.4316 41.7819 66.5072 41.7586 66.5785 41.699C66.6483 41.6393 66.6847 41.5768 66.6861 41.5099C66.6876 41.4371 66.6687 41.3586 66.6236 41.2742M68.1799 40.3491L67.7785 39.9331L67.8803 40.5033L68.1814 40.3491H68.1799ZM68.4199 40.6022L67.9385 40.8466L67.9879 41.107L67.5559 41.3266L67.3727 39.6931L67.8352 39.4575L69.0497 40.5659L68.6076 40.7928L68.4228 40.6022H68.4199ZM70.2905 38.9993L70.4083 39.8299L70.5232 39.8124C70.6221 39.8008 70.6919 39.779 70.7297 39.7513C70.7676 39.7208 70.7937 39.6815 70.8083 39.6219C70.8257 39.5651 70.8257 39.4764 70.8083 39.3542C70.785 39.1942 70.7428 39.0866 70.6832 39.0357C70.6221 38.9848 70.5305 38.9659 70.4068 38.9848L70.289 39.0008L70.2905 38.9993ZM69.7727 38.7215L70.4708 38.6211C70.609 38.6022 70.721 38.6037 70.8097 38.6299C70.9028 38.6561 70.9785 38.6982 71.0454 38.7608C71.1108 38.8233 71.1617 38.899 71.1996 38.9877C71.2403 39.0808 71.2665 39.1782 71.2796 39.2786C71.3043 39.4401 71.3043 39.5695 71.2781 39.6626C71.2563 39.7542 71.2156 39.8386 71.1574 39.9128C71.0992 39.9811 71.0337 40.0335 70.9625 40.0626C70.8752 40.1033 70.7821 40.131 70.6861 40.147L69.9865 40.2459L69.7727 38.7244V38.7215ZM71.8657 38.4233L73.1356 38.5179L73.1123 38.8451L72.3181 38.7855L72.2992 39.0299L73.0367 39.0837L73.0105 39.395L72.2774 39.3426L72.2556 39.6422L73.073 39.7033L73.0468 40.0495L71.7523 39.9535L71.8657 38.4219V38.4233ZM73.8221 38.6022L74.2788 38.7302L73.9632 39.8473L74.6774 40.0495L74.5727 40.4117L73.4017 40.0801L73.8221 38.6022ZM76.417 40.3084L76.5159 40.3724C76.5916 40.4233 76.6556 40.4437 76.7021 40.4393C76.7487 40.4364 76.7923 40.4102 76.8156 40.3681C76.8403 40.3288 76.8505 40.2851 76.8447 40.2386C76.8359 40.1935 76.7937 40.147 76.7196 40.099L76.6061 40.0219L76.4185 40.3099L76.417 40.3084ZM76.3792 39.4982L77.0396 39.9346C77.1821 40.0291 77.2665 40.1353 77.2927 40.2488C77.3203 40.3651 77.2927 40.4873 77.2068 40.6124C77.1239 40.7404 77.0177 40.8161 76.8912 40.8379C76.7632 40.8582 76.6221 40.819 76.4621 40.7128L76.2454 40.5688L75.9327 41.0444L75.5341 40.7811L76.3792 39.4982ZM78.0476 41.843L78.3152 41.331L77.8061 41.6059L78.0476 41.843ZM77.8847 42.1484L77.4992 41.7688L77.2665 41.8968L76.9203 41.5579L77.6301 41.2291L78.4127 40.867L78.7807 41.2306L78.1116 42.7331L77.7581 42.3826L77.8832 42.147L77.8847 42.1484ZM79.313 42.8161L79.4207 42.9877C79.4337 43.0051 79.457 43.0386 79.505 43.0837C79.5268 43.1055 79.5574 43.1186 79.5879 43.1201C79.6199 43.1244 79.6519 43.1157 79.6796 43.0968C79.7203 43.0706 79.7436 43.0386 79.7508 42.9964C79.7567 42.9571 79.7348 42.8975 79.6868 42.8248L79.5763 42.6488L79.3116 42.8161H79.313ZM78.2847 42.9077L79.5807 42.0801L80.0068 42.7477C80.0854 42.8713 80.1363 42.9717 80.1596 43.0502C80.1785 43.1288 80.1712 43.2102 80.1392 43.2844C80.1072 43.363 80.0505 43.427 79.969 43.4793C79.8948 43.5259 79.825 43.5521 79.7523 43.5521C79.6839 43.5564 79.6127 43.539 79.5428 43.5099C79.4919 43.4793 79.4454 43.4415 79.4017 43.4008C79.4148 43.4575 79.4236 43.5026 79.4221 43.5346C79.4148 43.571 79.4061 43.6059 79.3945 43.6408C79.3828 43.6786 79.3668 43.715 79.3479 43.7499L79.0977 44.1848L78.8068 43.731L79.0672 43.2655C79.1021 43.203 79.1196 43.1593 79.1196 43.1273C79.121 43.0851 79.1152 43.0459 79.0876 43.011L79.0672 42.9761L78.5392 43.3121L78.2832 42.9091L78.2847 42.9077ZM80.1028 44.979L80.5639 44.6313L79.9879 44.6633L80.1028 44.979ZM79.8236 45.1855L79.6388 44.6764L79.377 44.6953L79.2097 44.2386L80.8534 44.2575L81.0308 44.7433L79.7828 45.8124L79.6112 45.3426L79.8236 45.1855ZM80.5596 46.8219L80.8767 46.7797L80.9683 47.5128L80.3181 47.5913C80.2076 47.4633 80.1247 47.3499 80.0796 47.2451C80.0301 47.1419 79.9981 47.0168 79.9792 46.8699C79.9559 46.6895 79.9676 46.5368 80.0185 46.4161C80.0636 46.2939 80.145 46.1935 80.2599 46.1135C80.3748 46.0379 80.5101 45.9884 80.6672 45.9681C80.833 45.9462 80.9828 45.9637 81.1152 46.0175C81.2461 46.0699 81.3523 46.1586 81.4337 46.2822C81.4963 46.3811 81.5385 46.5164 81.5588 46.691C81.5821 46.8582 81.5821 46.9862 81.5603 47.0735C81.5443 47.1579 81.5036 47.2379 81.4439 47.3004C81.3814 47.3688 81.3043 47.4211 81.2185 47.4546L81.0803 47.011C81.1356 46.9833 81.1763 46.9484 81.1996 46.8975C81.2243 46.8495 81.2316 46.7884 81.2243 46.7215C81.2068 46.6168 81.1647 46.5397 81.0861 46.4873C81.0061 46.435 80.8868 46.419 80.7312 46.4379C80.5654 46.4582 80.4534 46.5062 80.3894 46.5746C80.3283 46.6473 80.305 46.739 80.3167 46.8495C80.3225 46.9019 80.3385 46.9513 80.3574 46.9964C80.3792 47.0444 80.4112 47.0939 80.4563 47.1535L80.6017 47.1331L80.561 46.8175L80.5596 46.8219ZM81.5327 49.1288L81.4788 49.6001L80.5697 49.4982C80.4825 49.4895 80.3981 49.4648 80.3181 49.427C80.241 49.3906 80.1741 49.3368 80.1217 49.2713C80.0694 49.2044 80.0345 49.1375 80.017 49.0691C79.9952 48.9702 79.9894 48.8611 80.0039 48.7302C80.0141 48.6561 80.0287 48.5746 80.0461 48.4888C80.0665 48.4015 80.097 48.3317 80.1363 48.2764C80.1756 48.2182 80.2265 48.1688 80.2832 48.1281C80.3501 48.0859 80.4112 48.0597 80.4723 48.0495C80.5727 48.0306 80.6614 48.0248 80.7356 48.035L81.6461 48.1382L81.5923 48.6081L80.6599 48.5004C80.5756 48.4917 80.5087 48.5062 80.4548 48.5484C80.4039 48.5906 80.3734 48.6502 80.3647 48.7317C80.3559 48.8146 80.3705 48.8815 80.4127 48.931C80.4534 48.9819 80.5159 49.0124 80.5988 49.0255L81.5312 49.1288H81.5327ZM80.1174 50.8786L80.6963 50.899L80.2279 50.5571L80.1159 50.8771L80.1174 50.8786ZM79.7741 50.8611L79.9501 50.3506L79.7348 50.1964L79.8948 49.7368L81.1588 50.787L80.9843 51.2786L79.345 51.3193L79.5065 50.8481L79.7727 50.8597L79.7741 50.8611ZM80.6236 52.2764L80.3559 52.7317H79.7508L80.0403 53.2655L79.7741 53.715L79.3072 52.7462L78.753 52.419L78.9959 52.0073L79.5501 52.3361L80.6236 52.275V52.2764Z" fill="black"/>
<path d="M71.9969 58.2971C66.3213 58.2971 61.7031 53.6789 61.7031 48.0018C61.7031 42.3248 66.3213 37.7109 71.9969 37.7109C77.6726 37.7109 82.2893 42.3277 82.2893 48.0018C82.2893 53.6789 77.6726 58.2971 71.9969 58.2971ZM71.9969 37.9248C66.4391 37.9248 61.9184 42.4455 61.9184 48.0004C61.9184 53.5553 66.4406 58.0818 71.9984 58.0818C77.5562 58.0818 82.0769 53.5597 82.0769 48.0004C82.0769 42.444 77.5562 37.9248 71.9984 37.9248H71.9969Z" fill="black"/>
<path d="M71.9973 55.6558C67.7588 55.6558 64.3086 52.2071 64.3086 47.9671C64.3086 43.7271 67.7573 40.2812 71.9959 40.2812C76.2344 40.2812 79.6831 43.7285 79.6831 47.9671C79.6831 52.2071 76.2344 55.6558 71.9973 55.6558ZM71.9973 40.4951C67.8766 40.4951 64.5239 43.8463 64.5239 47.9656C64.5239 52.0849 67.8766 55.4405 71.9973 55.4405C76.118 55.4405 79.4693 52.0878 79.4693 47.9656C79.4693 45.97 78.6926 44.0936 77.2817 42.6827C75.8708 41.2718 73.9944 40.4936 71.9973 40.4936V40.4951Z" fill="black"/>
<path d="M71.997 45.2383L72.634 47.0608L74.5599 47.1045L73.0253 48.2725L73.5839 50.1197L71.9984 49.0216L70.4115 50.1197L70.9671 48.2725L69.4297 47.1045L71.3599 47.0608L71.9984 45.2383H71.997Z" fill="#FEDF00"/>
<path d="M73.6625 50.2255L71.9985 49.0735L70.3345 50.2255L70.9178 48.288L69.3047 47.0633L71.3294 47.0182L72 45.1055L72.6676 47.0182L74.6894 47.0633L73.0792 48.288L73.6654 50.2255H73.6625ZM69.5563 47.1447L71.0181 48.2546L70.4901 50.0102L71.9985 48.9658L73.5069 50.0102L72.976 48.2546L74.4363 47.1447L72.6051 47.104L72 45.3716L71.3934 47.104L69.5578 47.1447H69.5563Z" fill="black"/>
<path d="M75.4988 53.1978C75.4348 53.2516 75.1759 53.2807 75.1075 53.2923C75.0377 53.301 74.7672 53.3039 74.6522 53.3083C74.5897 53.3127 74.4675 53.3301 74.4035 53.3301C73.8464 53.2661 75.3082 53.2749 75.4988 53.1978ZM74.0399 52.7672C74.0763 52.7018 74.2595 52.2959 74.325 52.181C74.3919 52.0676 74.5432 51.765 74.6333 51.6399C74.6799 51.5716 74.8617 51.3752 74.9053 51.4625C74.5897 51.7359 74.3395 52.213 74.2072 52.5345C74.1897 52.5694 74.0864 52.7483 74.0472 52.7949C74.0093 52.8414 74.0253 52.9272 73.9672 52.9345C73.9061 52.9418 73.9483 52.9534 73.9483 52.9534C73.9483 52.9534 74.0006 52.8356 74.0413 52.7672H74.0399ZM76.1388 53.0785C76.1388 53.0785 75.8872 53.0407 75.7315 52.9854C75.5759 52.933 75.3155 52.8923 75.093 52.8981C74.8733 52.901 74.6712 52.9679 74.4908 53.0363C74.3119 53.1032 74.0806 53.109 74.0806 53.109C74.0806 53.109 73.9497 53.1294 74.0108 53.0989C74.069 53.0698 74.2726 52.9112 74.2726 52.9112L74.4035 52.7323C74.4413 52.7221 75.1075 51.8479 75.0348 51.6138C75.1366 51.4407 75.2559 51.1338 75.2108 51.08C75.189 51.0581 74.693 51.237 74.5839 51.3359C74.4573 51.445 74.3686 51.672 74.3308 51.8029C74.2944 51.9323 74.1024 52.0399 74.1024 52.0399C73.9468 52.1519 73.8348 52.5054 73.781 52.7949C73.7272 53.0799 73.0232 53.2385 73.0232 53.2385C73.0232 53.2385 72.8282 53.3112 73.0013 53.3665C73.0319 53.3752 73.109 53.5061 73.1701 53.5076C73.2559 53.5178 73.6937 53.3301 73.7606 53.3447C73.909 53.3781 74.0559 53.4189 74.2013 53.4654C74.3686 53.5221 74.5053 53.5512 74.6232 53.5076C74.741 53.4654 74.9112 53.4814 75.0377 53.5061C75.1628 53.5323 75.3024 53.5221 75.3824 53.4974C75.4682 53.4712 75.6952 53.3447 75.6952 53.3447C75.6952 53.3447 75.941 53.2385 76.0821 53.1716C76.2246 53.1047 76.1373 53.0756 76.1373 53.0756" fill="#009B3A"/>
<path d="M74.4997 53.583C74.3979 53.583 74.2888 53.5525 74.1841 53.5176C74.0416 53.4725 73.8961 53.4317 73.7492 53.3983C73.7274 53.3968 73.5848 53.4434 73.4947 53.4754C73.3245 53.5336 73.2183 53.5685 73.1645 53.5627C73.1063 53.5612 73.0539 53.5001 73.0117 53.4521C73.0001 53.439 72.9841 53.4201 72.9783 53.4157C72.9594 53.4099 72.8779 53.3852 72.875 53.3154C72.8736 53.2441 72.9652 53.2019 73.0045 53.1874C73.1979 53.1437 73.6896 52.9896 73.7274 52.7845C73.7536 52.6376 73.8583 52.1474 74.0706 51.9947C74.123 51.9641 74.2525 51.8754 74.2786 51.7867C74.2961 51.7285 74.3877 51.4317 74.5492 51.2936C74.6103 51.2383 75.1776 50.9648 75.2517 51.0405C75.339 51.1452 75.1441 51.5292 75.0947 51.6208C75.1048 51.6819 75.0917 51.7939 74.9565 52.0397C74.8285 52.2725 74.5536 52.6681 74.4488 52.7627L74.3077 52.9532C74.2976 52.9619 74.2452 53.0027 74.187 53.0448C74.2685 53.0361 74.379 53.0187 74.4736 52.9837C74.6612 52.9125 74.8663 52.8456 75.0932 52.8427C75.3056 52.8368 75.5776 52.8747 75.7506 52.9328C75.9005 52.9852 76.1463 53.023 76.1492 53.023L76.1419 53.0754L76.1594 53.0259C76.187 53.0347 76.2205 53.0608 76.2219 53.1016C76.2248 53.1612 76.1637 53.1976 76.1085 53.2237C75.9659 53.2907 75.7201 53.3968 75.7201 53.3968C75.7012 53.407 75.4903 53.5234 75.4016 53.551C75.3157 53.5772 75.1674 53.5917 75.0292 53.5612C74.9361 53.5437 74.7616 53.519 74.6452 53.5612C74.6001 53.5787 74.5521 53.5845 74.5027 53.5845L74.4997 53.583ZM73.7536 53.2892C73.7608 53.2892 73.7681 53.2892 73.7739 53.2907C73.9237 53.3241 74.0736 53.3648 74.219 53.4128C74.3557 53.4594 74.4954 53.4957 74.6045 53.4565C74.7397 53.4085 74.9201 53.4274 75.0481 53.4521C75.1674 53.4783 75.2968 53.4652 75.3667 53.4448C75.4336 53.4245 75.6081 53.3314 75.6692 53.2965C75.6736 53.2936 75.9179 53.1888 76.059 53.1219C76.0605 53.1219 76.0619 53.1205 76.0634 53.119C75.9761 53.1045 75.8219 53.0739 75.7114 53.0347C75.5499 52.9808 75.2954 52.9445 75.0917 52.9503C74.8808 52.9532 74.6874 53.0172 74.5085 53.0841C74.3223 53.1539 74.0896 53.1597 74.0794 53.1597C74.0226 53.1685 73.9572 53.1801 73.9397 53.1248C73.9339 53.1059 73.9325 53.0725 73.9834 53.0463C74.0212 53.0274 74.1521 52.9299 74.2292 52.8688L74.3761 52.6783C74.4779 52.5837 75.035 51.8041 74.9797 51.6267L74.9725 51.6034L74.9841 51.583C75.0728 51.4347 75.1514 51.2252 75.1616 51.1379C75.0394 51.1699 74.7005 51.2994 74.6176 51.375C74.5099 51.4681 74.4226 51.6717 74.3805 51.8172C74.3383 51.9641 74.1477 52.0747 74.1259 52.0877C73.9892 52.1867 73.8816 52.5357 73.8321 52.8048C73.7739 53.1176 73.1077 53.2761 73.0321 53.2921C73.0234 53.2965 73.0103 53.3023 73.0001 53.3096C73.0045 53.311 73.0088 53.3125 73.0146 53.3154C73.0394 53.3227 73.0597 53.3459 73.0903 53.3808C73.1092 53.4027 73.1514 53.4507 73.1703 53.455C73.2096 53.4608 73.3565 53.407 73.4554 53.3736C73.6183 53.3183 73.7012 53.2921 73.7492 53.2921L73.7536 53.2892ZM74.4023 53.3837C74.283 53.3707 74.2205 53.3634 74.2219 53.3023C74.2248 53.2354 74.2437 53.2339 74.7325 53.2107C75.0132 53.1976 75.3972 53.1787 75.4772 53.1467L75.4976 53.1976L75.5325 53.2397C75.4714 53.2907 75.3143 53.3168 75.1601 53.3401L75.115 53.3474C75.0626 53.3547 74.9216 53.3576 74.7979 53.3605C74.7412 53.3605 74.6888 53.3634 74.6525 53.3648C74.6306 53.3663 74.5987 53.3692 74.5652 53.3736C74.507 53.3794 74.443 53.3867 74.4008 53.3867L74.4023 53.3837ZM73.9776 53.0172L73.9325 53.0056C73.8888 52.9939 73.8757 52.9648 73.8772 52.9401C73.8786 52.9125 73.8961 52.8979 73.915 52.8892C73.9339 52.8485 73.9659 52.783 73.9921 52.7379C74.0081 52.7103 74.0474 52.6259 74.0925 52.5299C74.1608 52.3859 74.2379 52.2216 74.2772 52.1517C74.3005 52.1125 74.331 52.0543 74.3674 51.9874C74.4387 51.855 74.5274 51.6921 74.5885 51.6048C74.5885 51.6048 74.7528 51.3736 74.8779 51.3823C74.9114 51.3852 74.939 51.4041 74.955 51.4347L74.9739 51.4725L74.9419 51.5001C74.5826 51.8099 74.3281 52.383 74.2583 52.5517C74.2408 52.5881 74.1347 52.7728 74.091 52.8252C74.0837 52.8339 74.0794 52.8528 74.0736 52.8717C74.0648 52.9067 74.0503 52.9619 73.995 52.9808L73.9805 53.0143L73.9776 53.0172Z" fill="black"/>
<path d="M74.2238 53.9254C74.2238 53.9254 73.2551 53.4178 73.2027 53.4062C73.1722 53.4018 72.7634 53.1764 72.5758 53.1182C72.4405 53.0745 72.2529 53.0629 72.186 53.0673C72.026 53.0789 71.7656 53.1487 71.7656 53.1487L72.0071 53.2476C72.0071 53.2476 72.2325 53.3582 72.3431 53.4178C72.5016 53.5007 72.5089 53.6025 72.5089 53.6025L73.386 53.988L73.5634 54.116C73.5634 54.116 73.7249 53.892 74.2223 53.924" fill="#009B3A"/>
<path d="M73.5751 54.1792L73.3613 54.0265L72.4667 53.6337V53.6076C72.4667 53.6076 72.4536 53.5276 72.3227 53.4577C72.2122 53.3981 71.9867 53.2876 71.9867 53.2876L71.6289 53.1407L71.754 53.1072C71.7642 53.1043 72.0202 53.0359 72.1831 53.0243C72.2515 53.0199 72.4464 53.0316 72.5889 53.0767C72.7125 53.1145 72.9293 53.2236 73.0718 53.2963C73.1344 53.3283 73.1998 53.3603 73.2129 53.3647C73.2667 53.3763 74.0158 53.7676 74.2442 53.8883L74.2209 53.9712C73.7569 53.9436 73.6013 54.1428 73.5998 54.1457L73.5736 54.1807L73.5751 54.1792ZM72.5482 53.5741L73.4049 53.9508L73.5591 54.0614C73.6158 54.0061 73.7627 53.9014 74.0449 53.8839C73.6871 53.6977 73.2333 53.465 73.1911 53.4519C73.1795 53.4519 73.1547 53.4388 73.0325 53.3777C72.8914 53.3065 72.6791 53.2003 72.5627 53.1639C72.4362 53.1232 72.2558 53.1116 72.1889 53.1145C72.106 53.1203 71.994 53.1436 71.9067 53.1625L72.0231 53.2105C72.0231 53.2105 72.2529 53.3239 72.3634 53.3836C72.4929 53.4519 72.5336 53.5334 72.5467 53.5756L72.5482 53.5741Z" fill="black"/>
<path d="M75.2002 51.9116C75.5057 51.6396 75.654 51.2527 75.9057 51.0389C75.9464 51.068 75.9464 51.116 75.8969 51.2018C75.8489 51.2861 75.7864 51.3152 75.7588 51.3589C75.7079 51.4272 75.5551 51.5538 75.513 51.6309C75.4766 51.7036 75.4286 51.804 75.2962 51.8811C75.1639 51.9596 75.206 52.0861 75.1944 52.1385C75.1842 52.1967 74.9806 52.3422 74.8817 52.5225C74.8628 52.7102 74.854 52.6316 74.7406 52.6985C74.9486 52.3858 75.0577 52.1836 75.2017 51.9102M74.5166 52.7712C74.4962 52.812 73.8955 53.1538 74.0831 53.1029C74.2693 53.0534 74.825 52.8527 74.9835 52.7829C75.177 52.6985 75.2919 52.5211 75.4373 52.3785C75.5857 52.2316 76.0424 51.7938 76.1224 51.6251C76.1995 51.452 76.2708 51.2105 75.9595 50.668C75.9595 50.668 75.9115 50.7712 75.7951 50.8731C75.6802 50.9763 75.51 51.0912 75.51 51.0912L75.3108 51.2789C75.3108 51.2789 74.6082 52.5705 74.5151 52.7712" fill="#009B3A"/>
<path d="M74.0559 53.168C74.0327 53.168 74.008 53.1607 73.9949 53.1316C73.9687 53.0705 74.0123 53.0414 74.2785 52.8698C74.3483 52.8247 74.4443 52.7636 74.4676 52.7432C74.5723 52.5207 75.2327 51.3076 75.2618 51.2552L75.2734 51.2407L75.4727 51.0531C75.4814 51.0458 75.6487 50.9338 75.7578 50.8334C75.8625 50.7418 75.9076 50.6472 75.9076 50.6472L75.9556 50.5469L76.0109 50.6429C76.3149 51.1738 76.2698 51.4414 76.1752 51.6523C76.101 51.8109 75.7374 52.1687 75.5425 52.3592L75.4785 52.4218C75.4407 52.4596 75.4043 52.5003 75.368 52.5396C75.2661 52.6531 75.1599 52.7709 75.0072 52.8378C74.8443 52.9105 74.2829 53.1127 74.0981 53.1607C74.0894 53.1636 74.0734 53.168 74.0559 53.168ZM74.565 52.7956L74.5694 52.7985C74.5563 52.8247 74.5272 52.8465 74.3498 52.96C74.5781 52.8814 74.8545 52.7796 74.9607 52.7316C75.0901 52.6749 75.1832 52.5716 75.2821 52.4611C75.3199 52.4189 75.3578 52.3767 75.397 52.3374L75.461 52.2749C75.637 52.1018 76.005 51.7411 76.0705 51.6014C76.1418 51.4414 76.1956 51.2334 75.957 50.7825C75.928 50.8218 75.8887 50.8698 75.8349 50.9163C75.7199 51.0211 75.5512 51.1345 75.5439 51.1389L75.3592 51.3149C75.2996 51.424 74.6567 52.6065 74.5694 52.7956H74.565ZM74.7701 52.7491L74.693 52.6676C74.8981 52.3578 75.0072 52.1571 75.1512 51.8836L75.1876 51.9025C75.1876 51.9025 75.1905 51.8996 75.1905 51.8981L75.1629 51.8676C75.3141 51.7323 75.4276 51.5651 75.5367 51.4051C75.6414 51.2494 75.7418 51.1025 75.8683 50.9934L75.9032 50.9643L75.9396 50.9905C76.008 51.04 76.0109 51.12 75.9469 51.2305C75.9149 51.2887 75.8756 51.3236 75.845 51.3512C75.829 51.3658 75.8145 51.3789 75.8072 51.3891C75.781 51.4254 75.7403 51.4647 75.6981 51.5069C75.6472 51.5578 75.5847 51.6203 75.5643 51.6567C75.5236 51.7367 75.4683 51.8472 75.3258 51.9287C75.253 51.9723 75.2545 52.032 75.2545 52.0887C75.2545 52.1091 75.2545 52.1294 75.2516 52.1483C75.2443 52.1891 75.2036 52.2298 75.1381 52.2981C75.0727 52.3651 74.9912 52.448 74.9389 52.5396C74.9272 52.6574 74.9156 52.6996 74.8356 52.7214C74.8181 52.7258 74.7992 52.7316 74.7716 52.7476L74.7701 52.7491ZM75.8363 51.1912C75.8232 51.2058 75.8116 51.2218 75.7985 51.2363C75.8116 51.2232 75.8247 51.2087 75.8363 51.1912Z" fill="black"/>
<path d="M76.9605 52.3203C76.9605 52.3203 76.575 52.2854 76.5416 52.2854C76.5052 52.2854 76.2943 52.2563 75.9874 52.2563C75.6805 52.2563 75.5699 52.361 75.4899 52.4469C75.4041 52.5414 75.1641 52.761 75.1641 52.761L75.2936 52.7494C75.6019 52.5094 75.8405 52.5981 75.9365 52.5909C76.0368 52.5879 76.1561 52.5967 76.4645 52.4876C76.7772 52.3785 76.7583 52.4803 76.7248 52.4905C76.575 52.5443 76.4194 52.5763 76.2608 52.5836C76.0281 52.5967 75.8245 52.6418 75.7343 52.6418C75.6441 52.6418 74.9648 52.8265 74.9648 52.8265C74.9648 52.8265 75.6979 52.8701 75.7765 52.8963C75.855 52.9283 75.9787 52.9138 76.0805 52.8643C76.3612 52.7349 76.4878 52.7101 76.6041 52.6839C76.7205 52.6621 76.8587 52.5821 76.8587 52.5821C76.8587 52.5821 76.9328 52.5356 77.0012 52.4105C77.071 52.2825 76.9605 52.3174 76.9605 52.3174M77.3198 50.3087C77.3663 50.1938 77.4812 49.9247 77.6048 49.8185C77.679 49.753 77.8085 49.7225 77.8768 49.6934C77.9059 49.6832 78.1168 49.673 77.8536 49.7458C77.7445 49.7749 77.5976 49.8389 77.5321 49.9494C77.4405 50.2039 77.3605 50.4265 77.1888 50.5894C77.0637 50.7203 76.9838 50.8919 76.9838 50.8919L76.8499 50.9385C77.0958 50.7872 77.2034 50.5079 77.3212 50.3072L77.3198 50.3087ZM78.511 50.1647C78.3699 50.2112 78.3219 50.2505 78.3219 50.2505C78.0078 50.345 77.8798 50.5414 77.7416 50.7028C77.6718 50.7872 77.5728 50.8498 77.2427 50.9923C76.9401 51.1218 76.7059 51.3239 76.7001 51.3239C76.7001 51.3239 76.6041 51.3443 76.623 51.3909C76.6303 51.4127 76.7118 51.3952 76.7118 51.3952C76.7118 51.3952 77.3358 51.3065 77.5961 51.1479C77.7619 51.0432 77.8565 50.9676 78.0136 50.7247C78.0834 50.617 78.1634 50.4149 78.1663 50.5458C78.1779 50.8905 77.6427 51.225 77.4085 51.3283C77.2834 51.3807 77.1161 51.4039 76.8994 51.4389C76.6841 51.4781 76.5532 51.4665 76.5692 51.4185C76.591 51.3501 76.6158 51.3356 76.6739 51.2672C76.7772 51.145 77.0245 51.1014 77.2063 51.0156C77.4216 50.9181 77.6267 50.777 77.7299 50.6549C77.8347 50.5312 77.871 50.4861 77.9001 50.3829C77.9801 50.1109 77.9845 49.961 78.0587 49.8636C78.3219 49.5392 78.3612 49.4345 78.3743 49.289C78.3772 49.2556 78.2376 49.3661 78.1648 49.4069C78.0223 49.4912 77.9699 49.4912 77.679 49.5669C77.3838 49.641 77.391 49.8301 77.3445 49.9203C77.3314 49.9567 77.2121 50.105 77.1539 50.1327C77.0972 50.1618 76.9561 50.3639 76.9052 50.4832C76.8674 50.5705 76.7976 50.633 76.7438 50.6258C76.6856 50.6156 76.8543 49.9858 76.8907 49.8825C76.9314 49.7792 76.9387 49.577 76.9387 49.5101C76.9387 49.4432 76.9416 49.2745 76.8267 49.2541C76.7132 49.2352 76.7074 49.0781 76.7074 49.0781C76.4339 49.3138 76.5867 49.7312 76.6157 49.977C76.6448 50.2214 76.559 50.6752 76.559 50.6752C76.8223 50.7872 76.6158 51.1087 76.5328 51.2119C76.447 51.3167 76.2827 51.337 76.2099 51.4287C76.1328 51.5247 75.5801 52.2927 75.5801 52.2927L76.2667 52.0978C76.2667 52.0978 76.3307 52.1094 76.2274 52.0309C76.1227 51.9567 76.2608 51.6672 76.3496 51.5974C76.5183 51.465 76.7467 51.561 76.7467 51.561C76.7467 51.561 77.0652 51.6105 77.4565 51.4549C77.7823 51.3254 77.9234 51.1174 78.0776 50.9603C78.1619 50.8745 78.3161 50.5909 78.4121 50.4221C78.4703 50.3247 78.575 50.1399 78.511 50.1618" fill="#009B3A"/>
<path d="M75.8758 52.9692C75.8307 52.9692 75.7899 52.9619 75.755 52.9474C75.7085 52.9328 75.2619 52.8994 74.9609 52.8819L74.9492 52.7743C74.9798 52.7656 75.0408 52.7496 75.1165 52.7292L75.1281 52.719C75.1281 52.719 75.3667 52.5008 75.451 52.4092C75.4598 52.4005 75.4685 52.3918 75.4772 52.3816L75.4438 52.3903L75.5354 52.2623C75.5587 52.2303 76.0896 51.4914 76.1667 51.3954C76.2103 51.3416 76.2743 51.3096 76.3369 51.279C76.3965 51.2499 76.4532 51.2223 76.4896 51.1787C76.5536 51.0972 76.6554 50.9314 76.6278 50.8223C76.6176 50.7801 76.587 50.7496 76.5361 50.7278L76.4954 50.7103L76.5041 50.6667C76.5041 50.6667 76.587 50.2187 76.5594 49.9859C76.5536 49.9408 76.5449 49.8885 76.5332 49.8347C76.4867 49.5888 76.4227 49.2514 76.6685 49.039L76.7543 48.9648L76.7587 49.0783C76.7587 49.0783 76.7645 49.1903 76.8314 49.2019C76.9885 49.2281 76.9885 49.4317 76.9885 49.5074C76.9885 49.5219 76.9885 49.7721 76.9376 49.9045C76.8998 50.0121 76.7965 50.4121 76.7834 50.5576C76.8052 50.5401 76.8314 50.5096 76.8518 50.4645C76.9027 50.3467 77.0496 50.1256 77.1267 50.0863C77.1689 50.0659 77.2779 49.9336 77.291 49.903C77.3012 49.8827 77.307 49.8623 77.3143 49.8419C77.3478 49.7387 77.3972 49.5816 77.6634 49.5161C77.7245 49.5001 77.7754 49.487 77.819 49.4768C77.9805 49.4361 78.0285 49.4245 78.1332 49.3619C78.1579 49.3474 78.1899 49.327 78.2205 49.3067C78.3165 49.2427 78.3558 49.2165 78.3965 49.2398L78.4256 49.2572V49.2965C78.4096 49.4638 78.3587 49.5801 78.0983 49.9001C78.059 49.951 78.0416 50.0281 78.0154 50.1445C77.9994 50.2143 77.9805 50.2958 77.9528 50.3932C78.0401 50.3176 78.1492 50.2492 78.2976 50.2041C78.3194 50.1896 78.3776 50.1561 78.4939 50.1168C78.539 50.1008 78.5652 50.127 78.571 50.1358C78.5987 50.1692 78.6059 50.2128 78.459 50.4572L78.4052 50.5503C78.3049 50.7278 78.1899 50.9285 78.1158 51.0056C78.0867 51.0347 78.0576 51.0667 78.0285 51.0987C77.899 51.2412 77.7507 51.4041 77.4758 51.5118C77.0758 51.6703 76.7514 51.6238 76.7383 51.6208C76.7238 51.6165 76.5245 51.535 76.3834 51.6456C76.3296 51.6878 76.2423 51.8521 76.2452 51.9496C76.2452 51.9641 76.2481 51.9845 76.2598 51.9918C76.3019 52.0238 76.3587 52.0674 76.3354 52.1198C76.3252 52.1445 76.3019 52.159 76.2714 52.1576L76.1085 52.2041C76.2787 52.2085 76.4081 52.2201 76.4852 52.2274C76.5129 52.2303 76.5332 52.2318 76.5405 52.2318C76.5739 52.2318 76.8721 52.2579 76.9536 52.2652C76.9899 52.2565 77.0321 52.2608 77.0583 52.2928C77.1005 52.3438 77.0583 52.4165 77.0467 52.4412C76.9725 52.5765 76.8896 52.6303 76.8852 52.6318C76.8765 52.6361 76.7354 52.7161 76.6118 52.7408L76.5943 52.7452C76.4852 52.7699 76.3616 52.7976 76.1012 52.9168C76.027 52.9518 75.947 52.9707 75.8743 52.9707L75.8758 52.9692ZM75.323 52.7961C75.5267 52.8107 75.7478 52.8296 75.7943 52.8441C75.8598 52.8703 75.9674 52.8587 76.0576 52.815C76.3296 52.6899 76.459 52.6608 76.5725 52.6347L76.5914 52.6303C76.6976 52.6099 76.8285 52.5372 76.8314 52.5358C76.8314 52.5358 76.8939 52.4921 76.9536 52.3859C76.9652 52.3641 76.9696 52.3525 76.9696 52.3481L76.9609 52.3205L76.9565 52.3743C76.8096 52.3612 76.5667 52.3394 76.5434 52.3394C76.5332 52.3394 76.5114 52.3379 76.4779 52.335C76.3863 52.3263 76.2161 52.3103 75.9907 52.3103C75.6954 52.3103 75.5979 52.415 75.5325 52.4834C75.5019 52.5168 75.4539 52.5648 75.403 52.6143C75.6052 52.5067 75.7725 52.5227 75.8714 52.5328C75.8976 52.5358 75.9179 52.5372 75.9339 52.5358H75.9703C76.0649 52.5328 76.1812 52.5299 76.4489 52.4354C76.6772 52.3554 76.7441 52.3816 76.7732 52.4092C76.795 52.4281 76.8038 52.4558 76.7979 52.4834C76.7921 52.511 76.7703 52.5358 76.7427 52.543C76.5899 52.5983 76.4285 52.6303 76.2656 52.639C76.139 52.6463 76.0198 52.6623 75.9252 52.6768C75.8438 52.6885 75.7812 52.6972 75.7361 52.6972C75.6983 52.6972 75.5267 52.7379 75.3376 52.7859C75.3347 52.7874 75.3318 52.7903 75.3303 52.7918L75.3259 52.7961H75.323ZM76.7063 52.4398C76.7063 52.4398 76.7049 52.4398 76.7034 52.4398C76.7034 52.4398 76.7049 52.4398 76.7063 52.4398ZM76.619 50.6478C76.6932 50.6914 76.7223 50.751 76.7339 50.7961C76.779 50.9736 76.6234 51.1874 76.5754 51.2485C76.523 51.3125 76.4503 51.3474 76.3849 51.3794C76.331 51.4056 76.2801 51.4303 76.2525 51.4652C76.1958 51.535 75.8758 51.9772 75.7158 52.1998L76.1827 52.0674C76.1609 52.047 76.1376 52.0107 76.1361 51.9496C76.1332 51.8187 76.2321 51.6238 76.3165 51.5568C76.3848 51.503 76.4619 51.4812 76.5318 51.4754C76.5143 51.455 76.5085 51.4274 76.5172 51.4012C76.5376 51.3387 76.5623 51.311 76.5972 51.2718C76.6074 51.2601 76.619 51.2485 76.6321 51.2325C76.7107 51.1394 76.8532 51.0899 76.9914 51.0405C77.0219 51.0303 77.0539 51.0187 77.0845 51.007C77.1281 50.9838 77.1747 50.9619 77.2227 50.9416C77.2561 50.927 77.2867 50.9139 77.3158 50.9008C77.4729 50.815 77.611 50.7118 77.6881 50.6201C77.7914 50.4994 77.8219 50.4601 77.8467 50.3685C77.8758 50.2696 77.8947 50.1867 77.9107 50.1168C77.9398 49.9918 77.9601 49.9001 78.0154 49.8288C78.2074 49.5918 78.2758 49.4783 78.3019 49.3808C78.2961 49.3852 78.2903 49.3896 78.2845 49.3925C78.251 49.4158 78.2161 49.4376 78.1914 49.4521C78.0736 49.5219 78.0125 49.5365 77.8481 49.5772C77.8045 49.5874 77.7536 49.6005 77.6925 49.6165C77.4845 49.6688 77.451 49.775 77.4205 49.8696C77.4118 49.8972 77.403 49.9219 77.3929 49.9423C77.3783 49.9845 77.2474 50.1459 77.1776 50.1794C77.1427 50.1983 77.0089 50.3801 76.955 50.5023C76.9056 50.6158 76.8154 50.687 76.7354 50.6768L76.7078 50.6739L76.6874 50.6448C76.6292 50.543 76.8343 49.8667 76.8372 49.8608C76.8736 49.7663 76.8823 49.5728 76.8823 49.5059C76.8823 49.4507 76.8823 49.3154 76.8168 49.3052C76.7441 49.2936 76.7019 49.2441 76.6787 49.1888C76.5609 49.3619 76.6059 49.6063 76.6452 49.8085C76.6554 49.8667 76.6656 49.9205 76.6714 49.967C76.6961 50.1765 76.6423 50.5227 76.6219 50.6405L76.619 50.6478ZM76.7689 51.5147C76.7819 51.5147 77.0801 51.5496 77.4365 51.4085C77.6416 51.327 77.771 51.2121 77.8772 51.1001C77.7114 51.2354 77.5281 51.3358 77.4307 51.3794C77.3143 51.4288 77.1718 51.4521 76.9899 51.4812L76.9085 51.4943C76.8576 51.5045 76.811 51.5103 76.7689 51.5147ZM77.1281 51.1103C76.9769 51.1903 76.8547 51.279 76.7878 51.3285C76.9667 51.2979 77.3754 51.2179 77.5674 51.1016C77.7274 51.0012 77.8147 50.9328 77.9674 50.6958C77.9878 50.6652 78.0081 50.6274 78.027 50.5925C78.0809 50.4921 78.1114 50.4368 78.1681 50.4499C78.2205 50.4616 78.2219 50.5212 78.2219 50.5445C78.2234 50.5939 78.2161 50.6434 78.2001 50.6914C78.2394 50.6259 78.2787 50.5561 78.3136 50.495L78.3674 50.4005C78.4067 50.3336 78.4343 50.2856 78.4518 50.2492C78.3849 50.2768 78.3587 50.2958 78.3587 50.2972L78.3412 50.3059C78.0823 50.383 77.9587 50.5328 77.8394 50.6783C77.8219 50.7001 77.8045 50.7205 77.787 50.7423C77.7143 50.8296 77.6139 50.8936 77.3638 51.0041C77.3201 51.0274 77.275 51.0492 77.2299 51.0696C77.1979 51.0841 77.1645 51.0987 77.1296 51.1118L77.1281 51.1103ZM76.8678 50.9939L76.8212 50.895C77.0045 50.783 77.1092 50.5867 77.2009 50.415C77.2241 50.3699 77.2474 50.3278 77.2707 50.287C77.3419 50.111 77.451 49.8812 77.5689 49.7794C77.6314 49.7241 77.7216 49.6936 77.7929 49.6688C77.8161 49.6601 77.8379 49.6528 77.8554 49.6456C77.8598 49.6441 77.9776 49.6165 78.0198 49.6543L78.043 49.6761L78.0372 49.711C78.0285 49.7488 77.995 49.7663 77.8685 49.8012C77.8176 49.8143 77.6459 49.8681 77.579 49.9801C77.4889 50.2332 77.4074 50.4601 77.227 50.6318C77.1121 50.7525 77.035 50.9168 77.0336 50.9183L77.0234 50.9401L76.8678 50.9939Z" fill="black"/>
<path d="M76.5619 52.0159C76.6143 51.9941 76.6215 51.9853 76.719 51.8806C76.8135 51.7759 76.7306 51.5984 76.5837 51.6057C76.5124 51.61 76.4353 51.594 76.2957 51.7831C76.1604 51.9722 76.3612 52.042 76.4368 52.0493C76.4688 52.0508 76.5124 52.0362 76.5619 52.0159Z" fill="#009B3A"/>
<path d="M76.4409 52.1092C76.4409 52.1092 76.4351 52.1092 76.4322 52.1092C76.3653 52.102 76.246 52.0656 76.2024 51.9696C76.182 51.9231 76.1719 51.8474 76.2446 51.7456C76.3784 51.5652 76.4671 51.5478 76.5602 51.5434H76.5791C76.6722 51.5376 76.7566 51.5885 76.7973 51.6743C76.8366 51.7587 76.8249 51.8518 76.7639 51.9187C76.6664 52.0263 76.6489 52.0438 76.5849 52.07C76.5224 52.0962 76.4788 52.1092 76.4409 52.1092ZM76.5908 51.6656C76.5908 51.6656 76.5864 51.6656 76.5849 51.6656H76.5631C76.5064 51.6685 76.4526 51.6714 76.342 51.8183C76.3217 51.8474 76.2984 51.8896 76.3129 51.9202C76.3304 51.958 76.3988 51.9842 76.4409 51.9885C76.4555 51.99 76.4889 51.9798 76.5369 51.9594C76.5748 51.9434 76.5748 51.9434 76.6649 51.846C76.7028 51.8038 76.6984 51.7587 76.6853 51.7281C76.6708 51.6976 76.6388 51.6656 76.5908 51.6656Z" fill="black"/>
<path d="M76.2081 50.8142C76.1165 50.9669 76.0685 51.1415 76.1398 51.1953C76.1558 51.204 76.2198 51.2593 76.2721 51.2593C76.3245 51.2593 76.4743 51.188 76.5587 51.0556C76.6445 50.9276 76.7143 50.788 76.5398 50.7007C76.3812 50.6222 76.2721 50.6949 76.2067 50.8127" fill="#009B3A"/>
<path d="M76.2718 51.3236C76.2093 51.3236 76.1497 51.2814 76.1177 51.2581L76.1017 51.2465C75.9882 51.1607 76.058 50.944 76.1526 50.7854C76.2486 50.6152 76.3998 50.5658 76.5671 50.6487C76.6413 50.6851 76.6864 50.736 76.7039 50.7971C76.73 50.896 76.6748 50.9978 76.6108 51.0938C76.5177 51.2363 76.3504 51.3251 76.2718 51.3251V51.3236ZM76.1758 51.1461C76.1758 51.1461 76.1831 51.1505 76.1904 51.1563C76.2064 51.168 76.2486 51.1985 76.2718 51.1985C76.3038 51.1985 76.4333 51.1374 76.506 51.024C76.5497 50.96 76.5962 50.88 76.5817 50.8276C76.5744 50.8014 76.5511 50.7796 76.5104 50.7592C76.4711 50.7403 76.3519 50.6807 76.2602 50.8451L76.2035 50.8131L76.2602 50.8465C76.1628 51.008 76.154 51.1287 76.1758 51.1461Z" fill="black"/>
<path d="M76.7264 48.9579C76.7264 48.9579 76.741 48.9347 76.6813 48.8721C76.5868 48.7747 76.4675 48.6016 76.4675 48.6016C76.2784 48.7048 76.2159 48.9128 76.2159 48.9957C76.2159 49.0787 76.2479 49.2692 76.2188 49.4612C76.2086 49.5267 76.1984 49.6008 76.1053 49.8365C76.0093 50.0692 76.1184 50.2845 76.1402 50.3601C76.1562 50.4357 76.2348 50.6685 76.2348 50.6685C76.2348 50.6685 76.309 50.6205 76.3337 50.6161C76.3628 50.6088 76.4631 50.6132 76.4631 50.6132C76.4631 50.6132 76.5766 50.4081 76.581 50.2932C76.5839 50.2088 76.5693 50.0663 76.5301 49.8467C76.4748 49.5281 76.4777 49.4365 76.5155 49.2576C76.5533 49.0772 76.7279 48.9579 76.7279 48.9579" fill="#009B3A"/>
<path d="M76.2039 50.7552L76.1821 50.6883C76.1792 50.6782 76.1036 50.4512 76.0861 50.3742C76.0832 50.3669 76.0788 50.3538 76.073 50.3378C76.0381 50.2403 75.9654 50.0367 76.0541 49.8185C76.1428 49.5931 76.1545 49.5218 76.1646 49.4592C76.185 49.324 76.1748 49.1931 76.1676 49.0971C76.1646 49.0578 76.1617 49.0229 76.1617 48.9982C76.1617 48.9036 76.2301 48.6709 76.4425 48.5545L76.4861 48.5312L76.5137 48.572C76.5137 48.572 76.6316 48.7422 76.7217 48.8352C76.8003 48.9167 76.7886 48.9662 76.7741 48.988L76.7275 48.9589L76.7581 49.004C76.7581 49.004 76.6025 49.1131 76.569 49.2702C76.5326 49.4447 76.5297 49.5291 76.5835 49.8389C76.6199 50.0425 76.6388 50.1967 76.6359 50.2956C76.6315 50.4192 76.5239 50.6185 76.5108 50.6403L76.4948 50.6694H76.4614C76.4134 50.6665 76.361 50.6665 76.3479 50.6694C76.3363 50.6723 76.297 50.6942 76.265 50.716L76.2054 50.7538L76.2039 50.7552ZM76.4526 48.6782C76.3174 48.7756 76.2708 48.9342 76.2708 48.9996C76.2708 49.0229 76.2737 49.0534 76.2766 49.0898C76.2839 49.1902 76.2955 49.3283 76.2737 49.4723C76.2635 49.5422 76.2505 49.6236 76.1559 49.8607C76.0832 50.0396 76.1443 50.2098 76.1763 50.3014C76.1836 50.3203 76.1894 50.3363 76.1923 50.3494C76.2025 50.3989 76.2403 50.5167 76.265 50.5909C76.2854 50.5792 76.3072 50.5691 76.3217 50.5662C76.345 50.5603 76.3945 50.5603 76.4308 50.5603C76.4657 50.492 76.5239 50.3654 76.5268 50.2942C76.5283 50.2316 76.521 50.1036 76.4759 49.8592C76.4192 49.5349 76.4221 49.4374 76.4614 49.2498C76.4934 49.0971 76.6083 48.9865 76.6635 48.94C76.6592 48.9327 76.6519 48.924 76.6417 48.9138C76.5734 48.844 76.4948 48.7378 76.4526 48.6796V48.6782Z" fill="black"/>
<path d="M77.0066 49.2747C77.0066 49.2747 77.1142 49.2486 77.1681 49.1526C77.2364 49.0347 77.2175 48.9111 77.2175 48.9111C77.0517 48.5896 76.8277 48.8486 76.8277 48.8486C76.6284 49.2573 77.0051 49.2747 77.0051 49.2747" fill="#009B3A"/>
<path d="M77.0035 49.3346C76.9962 49.3346 76.8231 49.3245 76.7461 49.1935C76.6908 49.099 76.701 48.9739 76.7751 48.8212L76.7839 48.8081C76.7839 48.8081 76.9002 48.6728 77.0442 48.6888C77.1344 48.699 77.2115 48.7645 77.2726 48.8808L77.2784 48.8997C77.2784 48.8997 77.2988 49.0466 77.2202 49.1805C77.1548 49.2983 77.0268 49.3303 77.021 49.3317L77.0064 49.2735L77.0035 49.3332V49.3346ZM76.8784 48.8823C76.842 48.9594 76.8086 49.0641 76.8479 49.1325C76.8842 49.195 76.9701 49.211 76.9991 49.2139C77.021 49.2066 77.082 49.1819 77.114 49.1223C77.1606 49.0408 77.1606 48.955 77.1577 48.9274C77.1184 48.8546 77.0748 48.8154 77.0282 48.8095C76.9671 48.8037 76.9031 48.8546 76.877 48.8823H76.8784Z" fill="black"/>
<path d="M77.5773 48.6865C77.33 48.6996 77.2078 49.1447 77.2078 49.1447C77.2078 49.1447 77.1671 49.2553 77.0362 49.3396C76.8951 49.4269 76.978 49.5505 76.978 49.7731C76.978 49.9956 76.8238 50.3869 76.8238 50.3869L76.7656 50.5193C76.7656 50.5193 76.7714 50.6196 76.8616 50.4378C77.0158 50.1324 77.1831 50.2065 77.2471 49.8793C77.2878 49.6349 77.6907 49.5578 77.6907 49.5578L77.5773 49.536C77.1569 49.3396 77.602 48.848 77.6733 48.7607C77.7489 48.6734 77.8216 48.6734 77.5773 48.6851" fill="#009B3A"/>
<path d="M76.7801 50.6183C76.7801 50.6183 76.7685 50.6183 76.7627 50.6168C76.722 50.6081 76.6943 50.5717 76.6914 50.5237V50.5063L76.7554 50.3579C76.7554 50.3565 76.9038 49.9783 76.9038 49.7732C76.9038 49.7107 76.8965 49.6539 76.8907 49.6045C76.8747 49.4852 76.8587 49.363 76.9954 49.2787C77.103 49.2103 77.138 49.1201 77.138 49.1187C77.1496 49.0736 77.2805 48.6285 77.5714 48.6139H77.599C77.7503 48.6052 77.7881 48.6037 77.81 48.659C77.8303 48.7114 77.7896 48.7463 77.7678 48.7667C77.7561 48.7768 77.7401 48.7899 77.7241 48.8088L77.7125 48.8234C77.5278 49.043 77.4478 49.2132 77.4725 49.3296C77.4856 49.3878 77.5263 49.4328 77.5976 49.4677L77.7023 49.4867V49.6277C77.6034 49.6467 77.3416 49.7325 77.3154 49.891C77.2747 50.1005 77.1903 50.1732 77.1089 50.243C77.0478 50.2954 76.9852 50.3492 76.9241 50.4714C76.8863 50.547 76.8441 50.6198 76.7816 50.6198L76.7801 50.6183ZM77.5787 48.7565C77.4187 48.7652 77.3023 49.059 77.2747 49.1623C77.2703 49.1739 77.2223 49.3019 77.0725 49.3979C77.0172 49.4314 77.0158 49.459 77.0332 49.5841C77.0405 49.6379 77.0478 49.699 77.0478 49.7703C77.0478 49.8867 77.0099 50.0423 76.9707 50.1703C76.9867 50.1558 77.0012 50.1427 77.0158 50.131C77.0899 50.067 77.1438 50.0205 77.1743 49.8634C77.2005 49.7063 77.3401 49.6103 77.4667 49.5536C77.3954 49.5027 77.3518 49.4372 77.3343 49.3587C77.2849 49.1332 77.487 48.8699 77.583 48.755H77.5801L77.5787 48.7565Z" fill="black"/>
<path d="M77.5005 49.2129C77.387 49.4558 77.7099 49.4675 77.7841 49.4253C77.8147 49.4078 77.883 49.3264 77.883 49.3264C78.0139 49.1387 77.8947 49.0107 77.8263 48.9918C77.7608 48.97 77.6198 48.9526 77.5019 49.2115" fill="#009B3A"/>
<path d="M77.6808 49.5066C77.6067 49.5066 77.5237 49.4862 77.4714 49.4382C77.4336 49.4033 77.3797 49.3248 77.4437 49.188C77.5776 48.8971 77.7521 48.9058 77.8437 48.9364C77.8917 48.9495 77.9572 48.9989 77.9863 49.0789C78.0096 49.14 78.0183 49.2389 77.9325 49.3626C77.9063 49.3931 77.8496 49.4586 77.8147 49.4789C77.7841 49.4964 77.7361 49.5066 77.6823 49.5066H77.6808ZM77.7594 49.044C77.6823 49.044 77.6139 49.1095 77.5543 49.2389C77.5179 49.316 77.5456 49.3408 77.5543 49.348C77.6023 49.3917 77.7245 49.3902 77.7536 49.3728C77.7652 49.3655 77.803 49.3262 77.835 49.2884C77.8757 49.2288 77.8903 49.1691 77.8714 49.1211C77.8554 49.0789 77.8219 49.0571 77.8088 49.0528C77.7928 49.0469 77.7754 49.044 77.7594 49.044Z" fill="black"/>
<path d="M76.8905 48.2694C76.9749 48.4265 77.212 48.8658 77.2673 48.8396C77.3022 48.8221 77.2745 48.7334 77.2745 48.7334C77.2745 48.7334 77.2673 48.6141 77.2295 48.4716C77.1916 48.3261 77.2004 48.1414 77.1247 48.0221C77.052 47.9029 76.876 47.7618 76.8062 47.5756C76.7378 47.388 76.7916 47.0316 76.7974 46.988C76.8047 46.9472 76.8251 46.9734 76.7887 46.9312C76.7524 46.8847 76.4527 46.7261 76.4527 46.7261C76.4527 46.7261 76.4702 46.8425 76.4629 47.052C76.46 47.1029 76.4455 47.1625 76.4382 47.2512C76.4309 47.3356 76.4818 47.4418 76.604 47.6832C76.7465 47.964 76.8149 48.1356 76.8905 48.2723M78.6855 46.1836C78.6855 46.1836 78.5996 46.3276 78.5691 46.3596C78.5371 46.3916 78.0498 46.8105 78.0222 46.828C77.9989 46.8469 77.7444 46.9283 77.5131 47.5538C77.2804 48.1778 77.3807 48.761 77.3807 48.761L77.4927 48.7465L77.5116 48.6854C77.5116 48.6854 77.5495 48.4789 77.5785 48.3218C77.6105 48.1661 77.7851 47.9509 77.9 47.7909C78.0105 47.6338 78.0978 47.4098 78.0978 47.4098C78.2287 47.1465 78.2913 46.9109 78.4207 46.7276C78.4251 46.9458 77.5945 48.2898 77.5058 48.748L77.7516 48.7101C77.948 48.5312 78.2054 48.153 78.38 47.9101C78.5545 47.6658 78.6302 47.2847 78.6607 47.116C78.6913 46.9487 78.684 46.185 78.684 46.185" fill="#009B3A"/>
<path d="M77.2579 48.8985C77.1997 48.8985 77.1153 48.8025 76.8433 48.2963C76.8041 48.2265 76.7692 48.1494 76.7226 48.052C76.679 47.9574 76.6266 47.8454 76.5553 47.7073C76.4302 47.46 76.375 47.3465 76.3837 47.2462C76.3881 47.1982 76.3939 47.1589 76.3997 47.1254C76.4041 47.0963 76.4084 47.0716 76.4099 47.0483C76.4172 46.8476 76.3997 46.7342 76.3997 46.7327L76.3837 46.6251L76.4797 46.676C76.5728 46.7254 76.7924 46.8462 76.8332 46.8956C76.855 46.9203 76.8841 46.9553 76.8521 46.996C76.8186 47.2534 76.8201 47.4498 76.8593 47.556C76.9001 47.6665 76.9844 47.7625 77.0586 47.8469C77.1023 47.8978 77.1444 47.9458 77.1735 47.9923C77.2288 48.0782 77.2433 48.1887 77.2564 48.2963C77.2637 48.3531 77.271 48.4083 77.2841 48.4563C77.2928 48.4913 77.3001 48.5232 77.3073 48.5538C77.2972 48.324 77.3102 47.9385 77.4615 47.5312C77.6055 47.1429 77.7801 46.8913 77.9837 46.7836C78.0244 46.756 78.4972 46.3516 78.5306 46.3167C78.5481 46.2993 78.6048 46.2091 78.6397 46.1523L78.6863 46.1814H78.7415C78.7415 46.212 78.7488 46.9523 78.7168 47.1225C78.6877 47.2753 78.6121 47.6811 78.4259 47.9385L78.3546 48.0389C78.1815 48.2833 77.9662 48.5873 77.7902 48.7473L77.7786 48.7589L77.4397 48.8113V48.8069L77.3408 48.8185C77.3364 48.8462 77.3233 48.8738 77.2928 48.8898C77.2812 48.8956 77.271 48.9 77.2593 48.9L77.2579 48.8985ZM76.5161 46.8214C76.519 46.8782 76.5204 46.9553 76.5175 47.0527C76.5161 47.0803 76.5117 47.108 76.5073 47.1414C76.503 47.1734 76.4972 47.2098 76.4928 47.2549C76.487 47.3247 76.5437 47.4411 76.6528 47.6578C76.7241 47.7974 76.7764 47.9109 76.8215 48.0069C76.8666 48.1029 76.9015 48.1785 76.9379 48.2454C77.0848 48.5203 77.1706 48.6571 77.2186 48.7254C77.2142 48.6818 77.2026 48.5902 77.175 48.4854C77.1604 48.4302 77.1532 48.3691 77.1444 48.3123C77.1313 48.2163 77.1183 48.1174 77.0775 48.052C77.0528 48.0127 77.0135 47.9676 76.9728 47.9196C76.8928 47.828 76.8012 47.7233 76.7546 47.5938C76.6964 47.4353 76.7153 47.1778 76.7415 46.9887C76.7415 46.98 76.7444 46.9727 76.7459 46.9669C76.7139 46.9378 76.6179 46.8796 76.5161 46.8229V46.8214ZM78.0506 46.8709C78.0506 46.8709 78.0433 46.8752 78.0332 46.8811C77.8106 47.0003 77.655 47.3218 77.5619 47.5705C77.3772 48.068 77.4092 48.5436 77.4252 48.6978L77.4484 48.6949L77.4572 48.6672L77.5226 48.3094C77.5532 48.164 77.6841 47.9865 77.799 47.8294L77.8528 47.7553C77.9575 47.6069 78.0433 47.3887 78.0448 47.3858C78.0972 47.2811 78.1364 47.1836 78.1757 47.0905C78.2353 46.9451 78.2921 46.8083 78.375 46.692L78.471 46.5567L78.4753 46.7225C78.4782 46.8345 78.3284 47.1283 78.0841 47.5996C77.8819 47.988 77.6564 48.4243 77.5793 48.6774L77.7277 48.6556C77.8921 48.5 78.0986 48.2105 78.2644 47.9763L78.3357 47.876C78.5073 47.6374 78.5801 47.2491 78.6077 47.1036C78.6281 46.9931 78.631 46.6032 78.631 46.3676C78.6222 46.3792 78.6135 46.3894 78.6077 46.3967C78.5801 46.4243 78.0855 46.852 78.0506 46.8738V46.8709Z" fill="black"/>
<path d="M77.0272 46.3194C76.9021 46.203 76.8047 46.1681 76.8047 46.1681C76.8047 46.1681 76.8352 46.3965 76.8352 46.5347C76.8352 46.6728 76.8469 46.907 76.8396 47.0321C76.8352 47.1557 76.7727 47.3623 76.8614 47.5645C76.9516 47.7637 77.0534 47.8641 77.1261 47.9892C77.1916 48.1114 77.3123 48.7485 77.3123 48.7485C77.3123 48.7485 77.2687 47.8874 77.3065 47.6445C77.3414 47.4059 77.353 47.0321 77.2992 46.8459C77.244 46.6583 77.1509 46.4387 77.0287 46.3194M77.6018 45.4787C77.6396 45.4045 77.7283 45.2532 77.7647 45.0219C77.7778 44.9245 77.788 44.7645 77.7836 44.6539C77.7807 44.5797 77.7516 44.4517 77.7836 44.443C77.8127 44.4357 77.788 44.4823 77.804 44.5914C77.8112 44.6307 77.785 44.7383 77.7807 44.8765C77.7749 44.987 77.769 45.0787 77.721 45.2285C77.6789 45.3594 77.7167 45.5063 77.6905 45.547C77.6614 45.5892 77.5858 45.7463 77.5858 45.7463C77.5858 45.7463 77.5392 45.8743 77.548 45.9892C77.5523 46.1085 77.5596 46.2365 77.5596 46.2365C77.5596 46.2365 77.6149 46.1347 77.737 46.1172C77.737 46.1172 77.7647 45.9179 77.7647 45.8554C77.7647 45.7928 77.8447 45.3856 77.8854 45.2605C77.9407 45.0787 77.98 44.7601 77.8912 44.3921C77.8665 44.2932 77.8491 43.9805 77.8491 43.9805C77.8491 43.9805 77.7312 44.075 77.6614 44.4299C77.6396 44.5376 77.6861 44.8285 77.6672 45.1368C77.66 45.307 77.497 45.9979 77.4738 46.0416" fill="#009B3A"/>
<path d="M77.2561 48.7579C77.2081 48.5048 77.1208 48.099 77.0757 48.0146C77.051 47.971 77.0219 47.9303 76.9899 47.8866C76.9332 47.8066 76.8692 47.7179 76.8096 47.587C76.7354 47.4183 76.7572 47.2495 76.7732 47.1259C76.7776 47.0895 76.7819 47.0575 76.7834 47.0299C76.7877 46.9528 76.7834 46.8335 76.7819 46.7186C76.7805 46.6517 76.779 46.5863 76.779 46.5354C76.779 46.4015 76.7499 46.1775 76.7499 46.1761L76.7383 46.0874L76.8226 46.1179C76.8226 46.1179 76.9317 46.1572 77.0641 46.2808C77.2125 46.4263 77.3056 46.6881 77.3492 46.8321C77.4045 47.0255 77.3943 47.4008 77.3579 47.6539C77.3216 47.8895 77.3637 48.739 77.3652 48.7477L77.2561 48.7608V48.7579ZM76.8706 46.2663C76.8794 46.3448 76.8881 46.4539 76.8881 46.5354C76.8881 46.5863 76.8896 46.6503 76.891 46.7157C76.8939 46.8335 76.8968 46.9543 76.891 47.0357C76.891 47.0663 76.8852 47.1012 76.8808 47.1405C76.8663 47.2568 76.8474 47.4023 76.9085 47.5419C76.9637 47.6626 77.0219 47.7441 77.0786 47.8226C77.1121 47.8692 77.1441 47.9143 77.1703 47.9608C77.1892 47.9957 77.211 48.0655 77.2343 48.1485C77.2314 47.9419 77.2343 47.7368 77.2488 47.6335C77.2852 47.3877 77.2925 47.0299 77.243 46.8583C77.1761 46.6328 77.083 46.4495 76.987 46.3565C76.9419 46.3157 76.9012 46.2852 76.8677 46.2634L76.8706 46.2663ZM77.515 46.4292L77.5048 46.2415C77.5048 46.2415 77.5005 46.1543 77.4961 46.0568L77.4277 46.0219C77.4408 45.9899 77.5106 45.7048 77.5615 45.4605L77.5528 45.4561L77.5645 45.4328C77.5645 45.4328 77.5659 45.4299 77.5674 45.427C77.5921 45.3034 77.611 45.1928 77.6139 45.139C77.6226 44.9775 77.6139 44.8205 77.6081 44.6939C77.6023 44.5746 77.5965 44.4801 77.6081 44.4234C77.6794 44.0583 77.8015 43.9521 77.8146 43.9419L77.8975 43.875L77.9034 43.9812C77.9077 44.067 77.9252 44.3055 77.9441 44.3826C78.0532 44.8365 77.9659 45.1841 77.9368 45.2801C77.8946 45.4081 77.819 45.8066 77.819 45.859C77.819 45.923 77.7943 46.1063 77.7914 46.1281L77.7856 46.1688L77.7448 46.1746C77.6532 46.1877 77.6096 46.2619 77.6081 46.2648L77.5165 46.4292H77.515ZM77.6357 45.7717C77.6357 45.7717 77.595 45.8866 77.6023 45.9885C77.6037 46.0306 77.6052 46.0743 77.6081 46.1121C77.6299 46.0975 77.6575 46.0845 77.6881 46.0757C77.6968 46.0074 77.7099 45.8997 77.7099 45.8605C77.7099 45.7863 77.7943 45.3688 77.8335 45.2495C77.8583 45.1666 77.9325 44.8728 77.8539 44.4815C77.8539 44.4845 77.8539 44.4859 77.8539 44.4888C77.8539 44.5121 77.8539 44.5441 77.8597 44.5892C77.8655 44.6154 77.8597 44.6517 77.8525 44.7085C77.8466 44.7565 77.8379 44.8161 77.8365 44.883C77.8292 45.0023 77.8234 45.0983 77.7739 45.2495C77.7521 45.315 77.755 45.3877 77.7565 45.4459C77.7565 45.5055 77.7594 45.5477 77.739 45.5797C77.7186 45.6088 77.6677 45.7106 77.6386 45.7732L77.6357 45.7717ZM77.8059 44.1485C77.7754 44.2139 77.7419 44.3085 77.7157 44.4437C77.707 44.4888 77.7114 44.5805 77.7172 44.6881C77.7201 44.739 77.723 44.7943 77.7245 44.8539C77.7288 44.7841 77.7303 44.7114 77.7288 44.6561C77.7288 44.6357 77.7245 44.611 77.7216 44.5848C77.7099 44.4903 77.7012 44.4088 77.7695 44.3914L77.7957 44.3841L77.8277 44.403C77.8277 44.403 77.8365 44.4103 77.8394 44.4146C77.8394 44.4117 77.8394 44.4103 77.8379 44.4074C77.8248 44.3535 77.8132 44.243 77.8059 44.1485Z" fill="black"/>
<path d="M77.6024 45.4805C77.5955 45.4925 77.5938 45.4977 77.5938 45.4977C77.5938 45.4977 77.5989 45.4925 77.6024 45.4805Z" fill="#009B3A"/>
<path d="M77.6288 45.536L77.543 45.4706L77.5517 45.4531H77.5546C77.5546 45.4531 77.5473 45.4633 77.5473 45.4648L77.5721 45.472L77.5575 45.456L77.6521 45.4953C77.6448 45.5186 77.6332 45.5317 77.6273 45.5375L77.6288 45.536Z" fill="black"/>
<path d="M77.1358 43.6869C77.1983 43.6869 77.1983 43.7553 77.1852 43.8091C77.175 43.8644 77.1765 43.9662 77.1765 43.988C77.1765 44.0127 77.2027 44.1582 77.223 44.2353C77.2463 44.3138 77.2856 44.3386 77.2681 44.4956C77.2565 44.5946 77.1547 44.7109 77.191 44.8796C77.2099 44.9684 77.2739 45.0615 77.3045 45.1371C77.3307 45.1895 77.3161 45.3204 77.3234 45.4266C77.3263 45.5298 77.383 45.5996 77.383 45.5996C77.383 45.5996 77.3132 45.732 77.2885 45.5662C77.2623 45.3771 77.255 45.2927 77.2187 45.2069C77.159 45.0673 77.1052 44.8142 77.1968 44.6207C77.2128 44.5829 77.2245 44.5131 77.2245 44.4302C77.2245 44.3473 77.1721 44.2018 77.1634 44.1131C77.1547 44.0418 77.1605 43.8935 77.1605 43.8396M76.8303 44.6309C76.8448 44.7371 76.8798 44.7982 77.0005 45.0309C77.0383 45.108 77.1212 45.3029 77.1343 45.3655C77.1488 45.428 77.1619 45.5022 77.1619 45.5226C77.1619 45.5429 77.175 45.6898 77.175 45.6898V45.7509C77.175 45.7509 76.8419 45.556 76.695 45.4527C76.5496 45.348 76.3837 45.204 76.279 45.1182C76.1597 45.0193 75.8747 44.6818 75.8703 44.4113L75.7394 44.292C75.7394 44.292 75.639 44.8942 76.1118 45.284C76.2485 45.396 76.3968 45.5182 76.7139 45.6622C77.0325 45.8091 76.9903 45.94 77.1227 46.2222C77.2536 46.5058 77.335 46.6673 77.351 46.7473C77.3627 46.8331 77.3147 48.036 77.3147 48.036L77.3263 48.1451C77.3263 48.1451 77.6172 47.0309 77.7568 46.9058C77.7568 46.9058 77.479 46.8636 77.5023 46.4273L77.4543 46.1393C77.4543 46.1393 77.399 45.7946 77.5023 45.5793C77.5023 45.5793 77.6259 45.1866 77.5838 44.8476C77.5576 44.644 77.5474 44.5844 77.5227 44.3895C77.4848 44.0869 77.3641 43.6535 77.3496 43.6011C77.3088 43.4484 77.2943 43.4251 77.2448 43.3058C77.2303 43.2636 77.2041 43.1226 77.159 43.1211C77.1328 43.1196 77.0936 43.3015 77.0936 43.3015C77.0936 43.3015 77.0354 43.4993 77.0237 43.5531C76.9859 43.7131 76.8972 43.8469 76.8565 44.2062C76.8492 44.2716 76.8419 44.4462 76.8347 44.4709C76.8303 44.4913 76.8216 44.5946 76.8303 44.6338" fill="#009B3A"/>
<path d="M77.3816 48.1551L77.2739 48.1464L77.2623 48.0373C77.2797 47.5661 77.3059 46.8097 77.2987 46.7501C77.287 46.6977 77.2332 46.5828 77.1517 46.4082L77.0747 46.241C77.0398 46.1682 77.0179 46.1057 76.9976 46.049C76.9408 45.8933 76.9103 45.8075 76.6936 45.7086C76.3736 45.5646 76.2208 45.4381 76.0856 45.3275C75.5896 44.9188 75.6856 44.3064 75.6899 44.2802L75.7059 44.1813L75.9285 44.3835V44.4068C75.9314 44.6555 76.2048 44.9799 76.3168 45.073L76.4012 45.1442C76.4987 45.2257 76.6208 45.3275 76.7299 45.4061C76.8274 45.4744 77.0107 45.5864 77.1198 45.6504C77.1154 45.6053 77.1096 45.5341 77.1096 45.521C77.1096 45.5079 77.0979 45.4395 77.0834 45.377C77.0718 45.3217 76.9917 45.1326 76.9539 45.0541L76.9321 45.0133C76.8288 44.8155 76.7939 44.7486 76.7794 44.6395C76.7692 44.5871 76.7794 44.4766 76.7838 44.4562C76.7881 44.4373 76.7925 44.3646 76.7954 44.3166C76.7983 44.2701 76.8012 44.225 76.8041 44.1973C76.8318 43.9457 76.8841 43.8017 76.9248 43.6839C76.9437 43.6315 76.9597 43.585 76.9714 43.537C76.983 43.4831 77.0427 43.2824 77.0427 43.2824C77.0877 43.0759 77.1212 43.0599 77.1634 43.0628C77.239 43.0657 77.2652 43.1646 77.2885 43.2519C77.2914 43.265 77.2957 43.2766 77.2972 43.2839L77.319 43.3362C77.351 43.4148 77.367 43.4541 77.4034 43.5835L77.4107 43.6111C77.4979 43.9384 77.5547 44.1959 77.5779 44.3791C77.591 44.4853 77.5997 44.5522 77.6099 44.625L77.6376 44.8388C77.6812 45.1864 77.559 45.5777 77.5547 45.5937C77.4572 45.7973 77.5067 46.1246 77.5081 46.1275L77.5561 46.4141C77.5372 46.8024 77.7568 46.8461 77.7656 46.8475L77.8776 46.8664L77.7932 46.9421C77.7001 47.025 77.4907 47.729 77.3801 48.1537L77.3816 48.1551ZM75.7888 44.4053C75.7859 44.5886 75.8238 44.9697 76.1496 45.2388C76.2907 45.3551 76.4318 45.4715 76.7387 45.6097C76.9976 45.729 77.0412 45.8482 77.1008 46.0126C77.1197 46.0664 77.1416 46.1261 77.175 46.1944L77.2521 46.3617C77.3394 46.5493 77.3932 46.6628 77.4077 46.7326C77.4165 46.7981 77.3976 47.3682 77.3845 47.7362C77.4688 47.4468 77.5823 47.0875 77.6739 46.929C77.5794 46.8795 77.4339 46.7501 77.4499 46.4228L77.4019 46.1479C77.4005 46.1348 77.3583 45.8701 77.4194 45.6504C77.399 45.6781 77.3656 45.713 77.3205 45.7042C77.255 45.6926 77.2419 45.6068 77.2376 45.5748L77.2303 45.521C77.2099 45.3741 77.2012 45.2999 77.1707 45.2301C77.1008 45.0657 77.0543 44.801 77.1503 44.5988C77.1605 44.5755 77.1736 44.5144 77.1736 44.4315C77.1736 44.3908 77.1576 44.3268 77.1416 44.2642C77.1285 44.2119 77.1168 44.1624 77.111 44.1202C77.1038 44.0635 77.1052 43.9631 77.1067 43.8919V43.841H77.127C77.127 43.8264 77.1299 43.8133 77.1328 43.8002C77.1416 43.7639 77.1387 43.745 77.1357 43.7406V43.6344C77.1823 43.6344 77.2085 43.6562 77.2216 43.6737C77.255 43.7173 77.2492 43.7799 77.239 43.8235C77.2318 43.8657 77.2317 43.953 77.2317 43.9821C77.2317 44.0097 77.2565 44.145 77.2768 44.2221C77.2812 44.2395 77.2885 44.2541 77.2943 44.2686C77.3161 44.3195 77.3379 44.3719 77.3234 44.5028C77.319 44.545 77.3016 44.5842 77.2856 44.6279C77.2565 44.7006 77.2259 44.7762 77.2448 44.8708C77.255 44.9202 77.2841 44.9741 77.3118 45.0279C77.3278 45.0599 77.3452 45.0904 77.3568 45.1195C77.3787 45.1617 77.3787 45.233 77.3772 45.3144C77.3772 45.3522 77.3772 45.3901 77.3801 45.425C77.383 45.5093 77.4281 45.5675 77.4281 45.5675L77.4412 45.585C77.4456 45.5748 77.4499 45.5661 77.4543 45.5559C77.4543 45.5559 77.5707 45.1762 77.5299 44.8548L77.5023 44.6424C77.4921 44.5697 77.4834 44.5042 77.4703 44.3966C77.4485 44.2191 77.3932 43.9661 77.3059 43.6431L77.2987 43.6155C77.2652 43.4933 77.2507 43.4584 77.2201 43.3828L77.1968 43.3275C77.1925 43.3159 77.1881 43.3013 77.1852 43.2853C77.1823 43.2737 77.1765 43.2548 77.1707 43.2344C77.1634 43.2591 77.1561 43.2868 77.1503 43.3144C77.1503 43.3188 77.0921 43.5137 77.079 43.5675C77.0659 43.6213 77.0485 43.6708 77.0296 43.7275C76.9903 43.8381 76.9408 43.9777 76.9147 44.2162C76.9117 44.2424 76.9088 44.2861 76.9059 44.3297C76.8987 44.4388 76.8957 44.4737 76.8899 44.4911C76.8885 44.5028 76.8812 44.5959 76.887 44.625V44.6293C76.9001 44.7195 76.9278 44.7719 77.0296 44.9682L77.0514 45.0104C77.0848 45.0788 77.175 45.2853 77.191 45.3581C77.2041 45.4133 77.2201 45.4977 77.2201 45.5253C77.2201 45.5457 77.2332 45.6868 77.2332 45.6868V45.8482L77.1503 45.8002C77.1372 45.793 76.8128 45.6039 76.6659 45.4991C76.5539 45.4177 76.4303 45.3144 76.3314 45.2315L76.247 45.1617C76.1408 45.0744 75.8397 44.7341 75.8194 44.4373L75.7888 44.4097V44.4053Z" fill="black"/>
<path d="M77.0792 46.1512C77.0792 46.1512 77.0312 46.0436 76.9818 45.9883C76.8829 45.872 76.749 45.7731 76.3709 45.5869C75.9927 45.3992 75.8938 45.0894 75.7003 44.9614C75.6116 44.9003 75.4414 44.8712 75.4414 44.8712C75.4414 44.8712 75.6101 45.1025 75.6494 45.1825C75.7003 45.2843 75.7134 45.3541 75.9214 45.5476C76.1279 45.7425 76.381 45.8094 76.5425 45.8589C76.7723 45.9301 77.0807 46.1498 77.0807 46.1498M75.8909 44.3621C75.901 44.3927 75.9985 44.7258 76.2036 44.9832C76.5163 45.3789 77.1185 45.661 77.1185 45.661C77.0618 45.4152 76.9643 45.1301 76.8858 45.0051C76.6123 44.5629 75.8894 44.3461 75.8894 44.3461C75.8894 44.3461 75.8763 44.3287 75.8909 44.3621ZM76.7549 44.5483C76.9163 44.1934 76.4334 43.8545 76.2967 43.6072C76.3476 43.5665 76.4072 43.6727 76.4625 43.7425C76.541 43.8472 76.765 44.1527 76.765 44.1527L76.8334 43.8283L76.2574 43.3047C76.2501 43.3803 76.0727 43.4429 76.0727 43.4429C75.9869 43.9287 76.7549 44.5483 76.7549 44.5483Z" fill="#009B3A"/>
<path d="M77.0473 46.194C77.0473 46.194 76.7433 45.9788 76.5251 45.9104L76.5033 45.9046C76.3389 45.8566 76.0888 45.7824 75.8822 45.5875C75.6975 45.4159 75.6597 45.3344 75.619 45.25L75.5986 45.2079C75.568 45.1453 75.4415 44.9679 75.3949 44.9039L75.3164 44.7948L75.4488 44.8166C75.456 44.8166 75.6335 44.8486 75.7295 44.9155C75.811 44.9693 75.8764 45.0522 75.9448 45.1395C76.051 45.2748 76.1717 45.4275 76.3928 45.5366C76.7913 45.7315 76.9208 45.8319 77.0211 45.9511C77.075 46.0108 77.1244 46.1228 77.1273 46.1271L77.0779 46.149L77.0459 46.194H77.0473ZM75.5724 44.9606C75.6219 45.0304 75.6771 45.1133 75.699 45.157C75.7062 45.173 75.7135 45.1875 75.7208 45.202C75.7571 45.2806 75.7891 45.349 75.9593 45.506C76.1469 45.6835 76.3724 45.749 76.5368 45.797L76.5586 45.8042C76.6604 45.8362 76.7768 45.8944 76.8757 45.9526C76.7855 45.8682 76.6459 45.7795 76.3477 45.634C76.1048 45.5133 75.971 45.3431 75.8619 45.2064C75.795 45.122 75.7382 45.0508 75.6713 45.0057C75.6451 44.9882 75.6102 44.9722 75.5739 44.9606H75.5724ZM77.1942 45.7577L77.0924 45.7097C77.0677 45.698 76.4742 45.4173 76.1571 45.0159C76.0291 44.8544 75.9157 44.6304 75.8386 44.386L75.8459 44.3817V44.3788L75.8371 44.3817C75.8299 44.3657 75.808 44.3177 75.8517 44.2915L75.8939 44.2668L75.9171 44.2959C76.0306 44.3322 76.6662 44.5504 76.928 44.9737C77.0066 45.1002 77.107 45.3839 77.1666 45.6471L77.1913 45.7562L77.1942 45.7577ZM75.9695 44.4311C76.0408 44.6319 76.1368 44.8137 76.243 44.9475C76.467 45.2297 76.848 45.4566 77.0328 45.5555C76.976 45.3417 76.8975 45.1293 76.8364 45.0319C76.6357 44.709 76.1731 44.5068 75.9695 44.4311ZM76.7171 44.5897C76.6851 44.5635 75.9244 43.9439 76.016 43.4319L76.0219 43.3999L76.0524 43.3897C76.1295 43.362 76.1979 43.317 76.2008 43.2966L76.211 43.1875L76.8917 43.8071L76.8044 44.2202C76.848 44.3322 76.8582 44.45 76.803 44.5708L76.7535 44.5475L76.7186 44.5897H76.7171ZM76.1193 43.4813C76.0844 43.8464 76.5528 44.2988 76.7244 44.4515C76.7593 44.2551 76.5877 44.0559 76.4335 43.877C76.3579 43.7897 76.288 43.7082 76.2459 43.6326L76.224 43.5919L76.2604 43.5628C76.2808 43.5468 76.3055 43.5395 76.3302 43.5424C76.387 43.5497 76.4291 43.6079 76.4742 43.6675C76.4844 43.6806 76.4931 43.6937 76.5033 43.7068C76.5542 43.7737 76.6619 43.9206 76.7346 44.0195L76.771 43.845L76.2677 43.3868C76.2255 43.4304 76.163 43.461 76.1193 43.4799V43.4813Z" fill="black"/>
<path d="M75.7501 43.7276C75.6105 43.7901 75.5625 43.7901 75.5625 43.7901L75.6396 43.9952L75.6847 44.0505C75.6847 44.0505 75.865 44.3123 75.9712 44.3443C76.0149 44.3603 76.1807 44.3894 76.345 44.4607C76.553 44.5494 76.8934 44.8461 76.8934 44.8461C76.8934 44.8461 76.329 44.209 76.1123 43.7319L76.0396 43.457L75.8345 43.4701C75.8345 43.4701 75.8912 43.6636 75.7516 43.7276" fill="#009B3A"/>
<path d="M76.855 44.8879C76.855 44.8879 76.519 44.5955 76.3226 44.5112C76.2106 44.4632 76.0986 44.4355 76.0245 44.4166C75.991 44.4079 75.9648 44.4021 75.9503 44.3963C75.8354 44.3613 75.6696 44.1286 75.6376 44.0821L75.5866 44.0137L75.4805 43.7344H75.559C75.559 43.7344 75.6041 43.7315 75.7248 43.6763C75.8194 43.6326 75.7786 43.4857 75.7786 43.4843L75.7597 43.4188L76.0783 43.3984L76.1627 43.717C76.3707 44.1737 76.9263 44.8035 76.9321 44.8093L76.855 44.8864V44.8879ZM75.6856 43.9672L75.7248 44.0166C75.7976 44.1228 75.9241 44.2741 75.9852 44.293C75.9997 44.2988 76.0216 44.3032 76.0506 44.3104C76.1277 44.3293 76.2456 44.3584 76.3648 44.4108C76.4201 44.4341 76.4827 44.4704 76.5452 44.5126C76.3736 44.2901 76.1714 44.0035 76.0594 43.7548L75.9954 43.5148L75.8965 43.5206C75.9037 43.6093 75.8834 43.7257 75.7714 43.7766C75.7117 43.8028 75.6667 43.8188 75.6347 43.829L75.687 43.9672H75.6856Z" fill="black"/>
<path d="M73.6351 43.3154C73.7296 43.4012 73.8329 43.4768 73.942 43.5437C74.0671 43.6194 74.4264 43.8303 74.694 43.8812C74.7565 43.8914 75.094 43.9336 75.094 43.9336C75.1071 43.7852 75.2685 43.7721 75.2685 43.7721L74.79 43.7197C74.4045 43.6906 74.1107 43.5306 73.8824 43.2717C74.1893 43.4579 74.6285 43.7503 74.9864 43.7343C76.4525 43.5903 74.5442 43.5539 74.3798 43.4477C74.2038 43.3401 74.0555 43.1597 74.0555 43.1597L73.6264 43.1408C73.6264 43.1408 73.4155 43.1277 73.6351 43.3154Z" fill="#009B3A"/>
<path d="M75.1452 43.9954L75.0885 43.9882C75.0885 43.9882 74.7496 43.946 74.6871 43.9358C74.4951 43.8994 74.2289 43.7802 73.9147 43.5911C73.8027 43.5242 73.6965 43.4442 73.5991 43.3569C73.5307 43.2987 73.458 43.2245 73.4871 43.1518C73.5147 43.0834 73.6121 43.0849 73.6296 43.0864L74.082 43.1067L74.098 43.1256C74.098 43.1256 74.2449 43.3002 74.4092 43.402C74.4572 43.4325 74.7641 43.4645 74.9881 43.4878C75.5089 43.5416 75.5918 43.5562 75.5918 43.6362C75.5918 43.6871 75.5758 43.7176 75.2732 43.7569V43.8253C75.2601 43.8253 75.1569 43.8384 75.1482 43.9358L75.1423 43.9925L75.1452 43.9954ZM73.6718 43.2754C73.7634 43.3584 73.8638 43.4325 73.97 43.4965C74.2725 43.6784 74.5271 43.7933 74.7045 43.8267C74.7511 43.834 74.9561 43.8602 75.0521 43.8718C75.0609 43.8471 75.074 43.8253 75.0885 43.8078L74.9111 43.7889C74.8878 43.7874 74.866 43.7845 74.8427 43.7816L74.786 43.7758C74.4049 43.7482 74.0965 43.5954 73.8434 43.3104L73.9132 43.2274L73.9961 43.2784C74.0805 43.3307 74.1751 43.3874 74.2725 43.4427C74.1591 43.3569 74.066 43.2565 74.0296 43.2158L73.6238 43.1984C73.6151 43.1984 73.6049 43.1984 73.5961 43.1984C73.6049 43.2114 73.6252 43.2362 73.6703 43.274L73.6354 43.3147L73.6703 43.2754H73.6718ZM74.9271 43.6798C74.946 43.6798 74.9663 43.6798 74.9852 43.6798C75.1496 43.6638 75.2616 43.6493 75.3372 43.6376C75.2311 43.6231 75.0914 43.6085 74.9765 43.5969C74.7176 43.5693 74.5314 43.5489 74.4267 43.5227C74.5663 43.5925 74.7103 43.6478 74.8441 43.6696L74.9256 43.6784L74.9271 43.6798Z" fill="black"/>
<path d="M75.3585 44.1557C75.4531 44.1484 75.52 44.131 75.5418 44.0277C75.5607 43.9113 75.5171 43.8269 75.3774 43.7964C75.3003 43.7775 75.1636 43.7731 75.1083 43.9113C75.0472 44.0524 75.2683 44.144 75.2683 44.144C75.2683 44.144 75.3105 44.163 75.36 44.1571M75.5243 43.3164C75.4007 43.3164 75.3585 43.4182 75.3847 43.6146C75.4167 43.8139 75.7221 43.7266 75.7221 43.7266L75.7789 43.6975C75.7789 43.6975 75.8196 43.6655 75.7978 43.507C75.776 43.3455 75.6509 43.3164 75.5258 43.3164" fill="#009B3A"/>
<path d="M75.3395 44.2105C75.2886 44.2105 75.2508 44.1945 75.245 44.1916C75.2304 44.1858 75.0981 44.1291 75.0559 44.0244C75.0384 43.9807 75.0384 43.9327 75.0573 43.8876C75.1184 43.7349 75.2697 43.7116 75.3904 43.7407H75.3977C75.3613 43.7116 75.3395 43.6709 75.3308 43.62C75.3119 43.4745 75.3264 43.3771 75.3788 43.3174C75.4137 43.2782 75.4632 43.2578 75.5242 43.2578C75.7206 43.2578 75.8297 43.3378 75.8501 43.4964C75.8748 43.6665 75.8312 43.7218 75.8108 43.7378L75.7468 43.7727C75.7235 43.78 75.6144 43.8091 75.5126 43.7916C75.5853 43.844 75.6144 43.9269 75.597 44.0331C75.5664 44.18 75.4617 44.2004 75.3657 44.2076C75.357 44.2076 75.3482 44.2076 75.341 44.2076L75.3395 44.2105ZM75.2988 43.8396C75.2464 43.8396 75.1882 43.8585 75.1592 43.9298C75.1504 43.9487 75.1504 43.9647 75.1577 43.9822C75.1795 44.036 75.261 44.0796 75.2886 44.0898C75.2886 44.0898 75.3192 44.1029 75.3541 44.0985H75.357C75.4515 44.0913 75.4777 44.0753 75.4893 44.0127C75.5053 43.9196 75.4675 43.8687 75.3672 43.8469C75.3482 43.8425 75.325 43.8382 75.3002 43.8382L75.2988 43.8396ZM75.5242 43.3684C75.485 43.3684 75.469 43.3814 75.4602 43.3916C75.4399 43.4149 75.421 43.4702 75.4384 43.6054C75.4428 43.6331 75.4544 43.652 75.4762 43.6665C75.5402 43.7073 75.6668 43.684 75.7061 43.6724L75.7395 43.6534C75.7439 43.6418 75.7541 43.6025 75.741 43.5124C75.7279 43.4091 75.6639 43.3684 75.5228 43.3684H75.5242ZM75.9882 43.5167L75.949 43.4324L76.0013 43.3989H76.0173L76.0246 43.4513L76.0275 43.4702L76.0333 43.508L75.9882 43.5167Z" fill="black"/>
<path d="M76.0193 43.4503C76.0193 43.4503 76.0309 43.4445 76.0629 43.4357C76.1255 43.411 76.1909 43.2597 76.1909 43.2597C76.2229 43.0547 76.076 43.0037 76.076 43.0037C75.8273 42.9543 75.8215 43.1725 75.8215 43.1725C75.7531 43.4561 75.9829 43.4532 76.0193 43.4517M74.9153 42.4772C74.9284 42.5717 75.0637 42.7085 75.084 42.7317C75.1087 42.7521 75.2789 42.931 75.3371 43.011C75.3953 43.091 75.5873 43.4532 75.5873 43.4532C75.5873 43.4532 75.6207 43.4474 75.6353 43.4197C75.6687 43.363 75.5073 42.9237 75.4898 42.8932C75.4302 42.7594 75.3342 42.6605 75.2367 42.5557C75.2135 42.5412 75.1335 42.4379 75.0462 42.3274C75.2193 42.5499 75.6644 43.1797 75.7953 43.4605C75.7953 43.4605 75.7793 43.1608 75.7633 43.0008C75.708 42.5325 75.5858 42.387 75.5466 42.3201C75.4782 42.1936 75.3022 42.0699 75.1771 42.0277C75.052 41.9827 74.9036 41.9201 74.7451 41.8692C74.5807 41.8197 74.7073 41.9667 74.7684 42.0947C74.844 42.2459 74.9051 42.3797 74.9182 42.4757" fill="#009B3A"/>
<path d="M75.5551 43.5142L75.5362 43.4793C75.4708 43.3556 75.334 43.104 75.2904 43.0429C75.2366 42.9687 75.0679 42.7927 75.046 42.7723L75.0329 42.7578C74.9646 42.6836 74.8729 42.576 74.8599 42.4843C74.8468 42.3898 74.7799 42.2472 74.7159 42.1192C74.7013 42.0902 74.6853 42.0596 74.6679 42.032C74.6199 41.9491 74.582 41.8836 74.6228 41.8342C74.6606 41.7876 74.7289 41.808 74.758 41.8167C74.8642 41.8502 74.966 41.8894 75.0577 41.9258C75.1057 41.9432 75.1508 41.9607 75.193 41.9767C75.3297 42.0232 75.5159 42.1556 75.593 42.2952L75.6075 42.3185C75.6584 42.4 75.766 42.5687 75.8169 42.9963C75.8169 43.0051 75.8184 43.0152 75.8199 43.0254C75.83 43.0123 75.8417 43.0007 75.8548 42.9891C75.9129 42.9425 75.99 42.9294 76.0875 42.9483C76.1602 42.9731 76.2766 43.0691 76.246 43.2669C76.2257 43.3207 76.1631 43.456 76.0846 43.4865C76.0555 43.4952 76.0482 43.4982 76.0439 43.4996L76.0206 43.4502L76.0235 43.5054C75.9886 43.5054 75.9115 43.5054 75.8475 43.4603L75.7457 43.4851C75.7311 43.4545 75.7137 43.4196 75.6919 43.3818C75.6919 43.4109 75.6919 43.4327 75.6817 43.4473C75.6569 43.4953 75.6017 43.5054 75.5959 43.5069L75.5566 43.5127L75.5551 43.5142ZM76.0089 43.0516C75.974 43.0516 75.9449 43.0603 75.9231 43.0763C75.8795 43.1112 75.8766 43.1738 75.8766 43.1738C75.862 43.2378 75.8548 43.3105 75.8897 43.3527C75.9217 43.392 75.9828 43.3934 76.0089 43.3963C76.0162 43.3934 76.0293 43.3891 76.0497 43.3833C76.0657 43.3774 76.1137 43.3062 76.1413 43.2378C76.1617 43.0982 76.0686 43.0589 76.0584 43.0545C76.0409 43.0516 76.025 43.0502 76.0104 43.0502L76.0089 43.0516ZM74.9689 42.4712C74.9733 42.5032 75.0024 42.5658 75.1144 42.6865L75.1246 42.6967C75.1449 42.7142 75.3209 42.896 75.3806 42.9803C75.4169 43.0312 75.5013 43.184 75.5639 43.2974C75.5464 43.2276 75.5188 43.1374 75.4926 43.0618C75.3151 42.7898 75.1028 42.4945 75.0009 42.3651L75.0868 42.2967L75.1144 42.3316C75.174 42.4058 75.2468 42.4989 75.2642 42.512L75.2875 42.5352C75.3806 42.6342 75.4766 42.7374 75.5377 42.8727C75.5377 42.8727 75.5624 42.9323 75.5915 43.0138C75.638 43.0865 75.6831 43.1563 75.7224 43.2232C75.7166 43.1476 75.7108 43.0691 75.7049 43.0109C75.6569 42.608 75.5595 42.4538 75.5129 42.3796L75.4955 42.352C75.4329 42.2371 75.27 42.1236 75.1551 42.0829C75.1115 42.0669 75.0649 42.0494 75.0169 42.0305C74.9282 41.9971 74.8322 41.9592 74.7319 41.9272C74.7406 41.9447 74.7522 41.9651 74.7609 41.9796C74.7784 42.0102 74.7973 42.0422 74.8119 42.0742C74.8788 42.208 74.95 42.3607 74.966 42.4712H74.9689Z" fill="black"/>
<path d="M74.3031 43.2498C74.4645 43.3865 74.5373 43.4825 74.8733 43.5319C75.2122 43.5843 75.2398 43.5625 75.2398 43.5625C75.2398 43.5625 75.4158 43.4781 75.3256 43.4039C74.8282 43.1858 74.3569 42.9254 74.1183 42.6316C74.1183 42.6316 74.1591 42.5908 74.3322 42.7639C74.4325 42.8658 74.4994 42.9167 74.5605 42.9632C74.7409 43.0898 74.8194 43.1261 74.9998 43.2236C75.0958 43.2759 75.3358 43.3327 75.3358 43.3327C75.3358 43.3327 75.3693 43.2599 75.4013 43.2512C75.4303 43.2439 75.3823 43.1305 75.1743 42.9618C75.058 42.8658 74.9562 42.7538 74.8689 42.6301C74.8689 42.6301 74.6216 42.5763 74.354 42.5312C74.1547 42.4992 73.778 42.2083 73.7853 42.2868C73.7925 42.3683 73.842 42.6214 73.9423 42.7814C74.0442 42.9428 74.1416 43.1072 74.3016 43.2498" fill="#009B3A"/>
<path d="M75.1971 43.6202C75.1433 43.6202 75.0458 43.6115 74.8626 43.5839C74.5498 43.5373 74.448 43.4486 74.3186 43.3351L74.2662 43.29L74.2982 43.2522L74.2647 43.29C74.1106 43.1548 74.0131 43.0006 73.92 42.8508L73.8953 42.8115C73.7891 42.6442 73.7367 42.3853 73.7295 42.2922L73.7266 42.2588L73.7586 42.2297C73.8051 42.1991 73.8662 42.234 74.0102 42.3169C74.1251 42.3824 74.2677 42.4639 74.3607 42.4784C74.6269 42.5235 74.8771 42.5773 74.8786 42.5773L74.8989 42.5817L74.9106 42.5991C74.9935 42.7184 75.0938 42.826 75.2058 42.9191C75.3397 43.0282 75.4778 43.1737 75.4589 43.2551L75.4517 43.2886L75.4109 43.3046C75.4109 43.3046 75.3935 43.3337 75.3833 43.3555L75.3746 43.3759C75.4036 43.4093 75.4051 43.4428 75.4036 43.4617C75.3935 43.5417 75.2931 43.5969 75.2611 43.6115C75.2582 43.6144 75.2495 43.6231 75.1971 43.6231V43.6202ZM74.336 43.2057L74.3898 43.2522C74.5149 43.3613 74.5978 43.434 74.8786 43.4748C75.1477 43.517 75.2117 43.5097 75.2189 43.5082C75.2597 43.4849 75.2916 43.4588 75.2946 43.4457C74.688 43.1809 74.2866 42.9235 74.0742 42.6631L74.0422 42.6239L74.0786 42.5889C74.1324 42.5366 74.2298 42.5817 74.3695 42.7213C74.4626 42.8159 74.5266 42.8653 74.5833 42.9089C74.7375 43.0166 74.8131 43.0573 74.9396 43.1257L75.0255 43.1722C75.0866 43.2057 75.2262 43.2449 75.3077 43.2653C75.3178 43.2493 75.3309 43.2319 75.3455 43.2188C75.3266 43.1839 75.2713 43.1082 75.1389 43.0006C75.024 42.906 74.9222 42.7969 74.8364 42.6762C74.7709 42.6631 74.5644 42.6195 74.3447 42.5831C74.2342 42.5657 74.0815 42.4784 73.9578 42.4086C73.9229 42.3882 73.8822 42.3649 73.8487 42.3489C73.8676 42.4537 73.9127 42.6297 73.9884 42.7504L74.0131 42.7911C74.1076 42.9409 74.1949 43.082 74.3375 43.2057H74.336ZM75.3847 43.1969C75.3847 43.1969 75.3804 43.1969 75.3775 43.1999C75.3804 43.1999 75.3818 43.1984 75.3847 43.1969Z" fill="black"/>
<path d="M71.5066 53.3655C71.3597 53.4091 70.26 53.8222 70.26 53.8222L69.9531 53.9458C70.3779 53.8498 70.7022 54.0636 70.7022 54.0636L71.9269 53.4964C71.9269 53.4964 71.924 53.4775 71.8935 53.4556C71.8615 53.4338 71.6549 53.3218 71.5066 53.3655Z" fill="#009B3A"/>
<path d="M70.6997 54.1146L70.6793 54.1015C70.6793 54.1015 70.3637 53.8993 69.9637 53.9895L69.9375 53.9066L70.2444 53.7829C70.291 53.7655 71.3484 53.3684 71.4953 53.3247C71.68 53.2695 71.9171 53.4193 71.9186 53.4207C71.9608 53.4513 71.9695 53.4804 71.971 53.4891L71.9768 53.5226L70.6982 54.1146H70.6997ZM70.2386 53.8789C70.4742 53.892 70.6473 53.9807 70.7055 54.0142L71.8546 53.4818C71.7993 53.4513 71.635 53.3727 71.5215 53.4076C71.3775 53.4498 70.288 53.8586 70.2779 53.8629L70.24 53.8775L70.2386 53.8789Z" fill="black"/>
<path d="M69.9072 53.9871C69.8985 53.9944 69.8912 54.0235 69.9116 54.0322C69.9726 54.0657 69.9566 54.0802 70.2345 54.1122C70.5137 54.1428 70.697 54.089 70.745 54.0366C70.8017 53.9755 70.0512 53.8606 69.9072 53.9857" fill="#009B3A"/>
<path d="M70.3932 54.1671C70.3437 54.1671 70.2885 54.1642 70.2318 54.1584C69.9932 54.1293 69.9612 54.1148 69.9132 54.0842C69.9074 54.0799 69.9001 54.0769 69.8928 54.0726C69.8739 54.0653 69.8594 54.0449 69.8565 54.0217C69.8521 53.9955 69.8623 53.9679 69.8797 53.9519C70.0339 53.8166 70.7016 53.9082 70.7801 53.9882C70.8034 54.0115 70.8048 54.0449 70.783 54.0682C70.735 54.1206 70.5983 54.1686 70.3947 54.1686L70.3932 54.1671ZM69.9627 54.0057C69.9947 54.026 70.0179 54.0377 70.2419 54.0653C70.4514 54.0886 70.5939 54.0609 70.6637 54.0333C70.5139 53.9882 70.0965 53.9446 69.9627 54.0071V54.0057ZM69.9176 53.9955L69.9394 54.0202C69.9394 54.0202 69.9408 54.0188 69.9423 54.0173C69.9423 54.0173 69.9423 54.0173 69.9408 54.0188L69.919 53.994L69.9176 53.9955ZM69.9321 53.9882C69.9321 53.9882 69.935 53.9882 69.935 53.9897C69.935 53.9897 69.9336 53.9897 69.9321 53.9882Z" fill="black"/>
<path d="M68.1417 50.0285L68.0908 49.6852C68.0908 49.6852 68.0267 48.7558 67.9206 48.5696C67.9002 48.5288 67.9089 48.4314 67.842 48.4299C67.714 48.4198 67.714 48.7223 67.698 48.9972C67.49 50.379 68.5911 51.4336 68.5911 51.4336L68.1402 50.0299L68.1417 50.0285Z" fill="#009B3A"/>
<path d="M68.5519 51.476C68.5403 51.4658 67.429 50.3836 67.6399 48.9858L67.6443 48.9044C67.6559 48.6745 67.6661 48.4767 67.7519 48.3996C67.7795 48.3764 67.813 48.3647 67.8479 48.3676C67.941 48.3691 67.9584 48.4636 67.9686 48.5087C67.9715 48.5204 67.9744 48.5364 67.9774 48.5422C68.085 48.7313 68.1461 49.5836 68.1534 49.6811L68.2028 50.0156L68.6523 51.4149L68.5519 51.4774V51.476ZM67.8363 48.4854C67.7839 48.5334 67.7737 48.7516 67.765 48.9116L67.7606 48.9989C67.6123 49.9822 68.1475 50.8054 68.4472 51.1764L68.0821 50.0374L68.0312 49.6942C68.005 49.3218 67.941 48.7269 67.8683 48.5989C67.8566 48.5756 67.8523 48.5538 67.8479 48.5334C67.845 48.5189 67.8406 48.4942 67.8348 48.4869L67.8363 48.4854Z" fill="black"/>
<path d="M73.6015 54.1239C73.6015 54.1239 73.4866 54.0977 73.5593 54.0075C73.6291 53.9217 73.8371 53.8751 73.8793 53.8751C73.92 53.8737 74.0378 53.8839 74.1236 53.9086C74.2109 53.9304 74.3331 54.0075 74.2967 54.0642C74.2589 54.118 74.1411 54.185 73.9782 54.185C73.8386 54.185 73.7673 54.182 73.7062 54.1646C73.6465 54.1428 73.6 54.1253 73.6 54.1253" fill="#009B3A"/>
<path d="M73.9804 54.2411C73.8407 54.2411 73.7622 54.2382 73.6938 54.2178C73.6385 54.1975 73.5964 54.1815 73.5862 54.1786C73.5658 54.1727 73.5047 54.1538 73.4858 54.0971C73.4771 54.0695 73.4742 54.0273 73.5164 53.9735C73.6022 53.8687 73.8305 53.8207 73.88 53.8207C73.928 53.8178 74.0473 53.8295 74.1404 53.8557C74.2058 53.8717 74.3222 53.9269 74.3527 54.004C74.3658 54.0346 74.3629 54.068 74.3454 54.0942C74.296 54.1655 74.1622 54.2397 73.9804 54.2397V54.2411ZM73.6196 54.0724C73.6196 54.0724 73.6676 54.0898 73.7273 54.1117C73.7782 54.1262 73.8509 54.1291 73.9789 54.1291C74.1345 54.1291 74.2291 54.0651 74.2509 54.0331C74.2422 54.0287 74.1796 53.9822 74.1098 53.9647C74.0269 53.9415 73.9149 53.9327 73.88 53.9342C73.8422 53.9342 73.656 53.9793 73.6007 54.0462C73.5905 54.0593 73.5891 54.0651 73.5891 54.0651C73.5891 54.0622 73.6036 54.0695 73.6124 54.0709L73.6007 54.1218L73.6182 54.0724H73.6196Z" fill="black"/>
<path d="M72.4025 53.4655C72.4025 53.4655 72.0244 53.291 71.6651 53.1164C71.1924 52.8852 70.6236 52.5652 70.2295 51.9775C69.7335 51.2502 69.3029 50.8604 69.1996 50.7819C69.092 50.7033 69.0775 50.6742 69.0382 50.7295C69.0033 50.7775 69.028 50.8197 69.0571 50.8706C69.1589 51.0364 69.4091 51.3477 69.4993 51.515C69.6535 51.8132 69.9735 52.139 69.9705 52.3324C69.9705 52.3586 69.8774 52.3135 69.8774 52.3135C69.8774 52.3135 69.1284 52.0575 68.8244 51.1499C68.6033 50.4924 68.6978 50.299 68.6455 49.9702C68.5582 49.3855 68.5407 49.339 68.2513 48.683C68.244 48.667 68.0738 48.3935 68.052 48.4532C68.02 48.5317 68.0811 48.8241 68.0811 48.8241L68.1116 49.1615C68.1116 49.1615 68.0869 49.9106 68.0869 49.9557C68.0869 50.0008 67.8978 50.4692 68.6993 51.2546C68.6993 51.2546 68.7109 51.3884 68.6033 51.2706C68.5276 51.1862 67.9531 50.7455 67.7785 50.0212C67.5982 49.2953 67.572 48.5695 67.7087 48.2684C67.8324 47.9964 68.0796 47.3303 67.9735 46.7484C67.9618 46.6873 67.9444 46.5099 67.9051 46.5564C67.8891 46.5797 67.8164 46.8735 67.7727 46.9753C67.7116 47.115 67.6185 47.2517 67.5895 47.3477C67.5327 47.5106 67.2564 47.7637 67.3102 48.2277C67.3713 48.7615 67.4062 48.8459 67.4702 49.035C67.492 49.1048 67.5458 49.2808 67.5109 49.2982C67.4789 49.3157 67.3655 49.0873 67.3655 49.0873C67.3655 49.0873 66.8578 48.0895 67.1705 47.2808C67.4876 46.475 68.2804 45.7113 68.2804 45.7113C68.2804 45.7113 68.9247 45.1761 69.0571 45.0524C69.108 45.0044 69.0964 44.9681 69.0789 44.9739C68.9189 45.0146 67.6782 45.2706 67.2418 46.7499C67.2418 46.7499 67.2185 46.8124 67.1865 46.7964C67.1458 46.779 67.1865 46.7092 67.1865 46.7092C67.1865 46.7092 67.46 45.6604 68.2251 45.1848C69.0615 44.6641 68.9625 44.7397 69.2389 44.5753C69.4135 44.4677 69.5705 44.3222 69.7655 44.0008C69.7858 43.9644 69.8644 43.7768 69.8542 43.7448C69.8455 43.7128 69.8076 43.7564 69.7902 43.8102C69.7902 43.8102 69.5531 44.1753 69.1996 44.299C68.8447 44.4226 68.5553 44.2466 68.1989 44.6408C67.8411 45.0379 67.5574 45.5877 67.5574 45.5877C67.5574 45.5877 67.4644 45.7302 67.444 45.7259C67.4047 45.7142 67.4629 45.5746 67.4629 45.5746C67.4629 45.5746 67.94 44.5622 68.324 44.3557C68.708 44.1477 69.0498 43.9499 69.268 43.7812C69.5327 43.5732 69.9895 43.0641 70.1553 42.8881C70.1902 42.8502 70.436 42.6015 70.4898 42.5215C70.5218 42.4779 70.6004 42.4139 70.5873 42.4023C70.5524 42.3761 70.3196 42.4881 70.3196 42.4881C70.3196 42.4881 69.0542 42.8372 68.2687 44.0255C68.2324 44.0808 68.1465 44.1928 68.1 44.2408C68.0156 44.3281 67.9735 44.4735 67.9735 44.4735C67.9225 44.4313 68.4185 43.8117 68.4185 43.8117L68.5058 43.4102C68.5058 43.4102 68.6527 42.8081 68.9611 42.3819C68.9916 42.3426 69.1734 42.1593 69.2054 42.1215C69.2665 42.0546 69.0891 42.1797 69.1211 42.1521C69.1211 42.1521 67.9414 42.9986 67.9414 44.0663C67.9414 44.2583 67.8222 44.4328 67.6578 44.6713C67.4658 44.9477 67.4018 45.1179 67.3175 45.5295C67.2825 45.7026 67.2462 45.8757 67.2098 46.0473C67.2098 46.0473 67.2215 46.2001 67.172 46.1884C67.1211 46.1768 67.1385 46.0517 67.1385 46.0517C67.1385 46.0517 67.2593 45.2561 67.3451 45.0117C67.428 44.7746 67.4833 44.6117 67.4833 44.6117C67.4833 44.6117 67.4338 44.0139 67.5662 43.6866C67.6782 43.4015 67.9633 43.0248 68.0084 42.9303C68.0273 42.8895 68.1596 42.6219 68.196 42.315C68.2004 42.2742 68.1684 42.3077 68.116 42.427C67.9865 42.7193 67.8775 42.7964 67.6651 43.0713C67.6651 43.0713 67.1182 43.467 66.9204 44.6466C66.9204 44.6466 66.9145 45.0859 66.8476 45.7739C66.7996 46.2786 66.8404 46.7513 66.8971 47.035C66.9335 47.2095 67.0033 47.211 66.9596 47.2313C66.9334 47.2444 66.9771 47.2342 66.9145 47.1019C66.8389 46.9448 66.7807 46.7019 66.7807 46.3659C66.7807 45.7506 66.8345 45.2575 66.8345 45.2575C66.8345 45.2575 66.8753 44.2641 66.4622 43.8161C66.4418 43.7928 66.5349 44.0168 66.5756 44.2408C66.6265 44.5186 66.5349 44.9026 66.5073 45.0524C66.4811 45.2037 66.2062 45.8597 66.3036 46.4764C66.3036 46.4764 66.5364 47.5208 66.836 48.0284C66.836 48.0284 67.0222 48.2466 66.8578 48.0415C66.6949 47.8364 66.3589 47.0233 66.3298 46.955C66.3036 46.8881 66.0636 46.3819 65.8382 46.1768C65.7218 46.0677 65.4004 45.8742 65.4004 45.8742C65.4004 45.8742 65.2258 45.7404 65.3582 45.9179C65.4629 46.0575 65.604 46.3077 65.6709 46.4168C65.8105 46.6422 65.9342 46.8764 66.0418 47.1179C66.1494 47.355 66.3996 48.0502 66.3996 48.0502L66.5596 48.491C66.5596 48.491 66.8273 48.6393 66.9742 48.8022C67.0935 48.9332 67.3422 49.2357 67.5473 49.7739C67.6404 50.0124 67.8251 50.2292 67.8251 50.2292C67.8251 50.2292 67.7858 50.3048 67.6214 50.0197C67.4585 49.7302 67.3 49.1892 66.9087 48.7673C66.612 48.4444 65.812 48.1186 65.812 48.1186C65.812 48.1186 66.3255 49.0146 66.4535 49.1746C66.6687 49.4306 66.9815 49.7899 67.0615 49.8844C67.1444 49.9819 67.6287 50.5782 67.7 50.6742C67.812 50.8241 67.8862 50.8895 67.9458 50.9506C68.0738 51.0859 68.4505 51.3346 68.4796 51.3724C68.4855 51.4117 68.4927 51.3797 68.4607 51.3564C68.2935 51.2561 68.0927 51.099 67.8862 50.9637C67.6796 50.827 66.8854 50.4881 66.3487 49.7492C66.2222 49.531 66.1611 49.4437 66.1189 49.4655C66.0535 49.5004 66.4796 50.9113 67.3567 51.3593C67.3567 51.3593 68.324 51.7899 68.5378 51.9193C68.6556 51.9906 68.8927 52.0953 69.0033 52.1826C69.0658 52.235 68.9465 52.2321 68.9378 52.2306C68.4244 52.1899 67.6869 52.123 67.2331 51.8597C67.2331 51.8597 67.0382 51.723 67.1982 51.915C67.3247 52.0633 67.5662 52.4299 68.0302 52.635C68.4956 52.8386 69.172 52.9579 69.4193 52.971C69.6622 52.9841 70.5291 52.9884 70.6949 53.0422C70.8578 53.0975 71.1342 53.275 71.2927 53.3259C71.4367 53.3724 71.8702 53.5382 71.8702 53.5382C71.8702 53.5382 72.0011 53.6095 72.0709 53.6357C72.1495 53.6662 72.4738 53.6648 72.4971 53.6037C72.5189 53.5484 72.404 53.4655 72.404 53.4655" fill="#009B3A"/>
<path d="M72.2477 53.6998C72.1677 53.6998 72.092 53.6925 72.0542 53.6765C71.9829 53.6503 71.8549 53.5805 71.8491 53.5776C71.8491 53.5776 71.42 53.4132 71.2789 53.3681C71.1946 53.3405 71.0811 53.2808 70.9706 53.2227C70.8658 53.1674 70.7582 53.1107 70.6811 53.0845C70.5677 53.0481 70.0644 53.0336 69.7313 53.0248C69.5975 53.0219 69.484 53.019 69.4171 53.0147C69.1757 53.0016 68.4949 52.8867 68.012 52.6758C67.6048 52.4954 67.3677 52.1972 67.2251 52.0198C67.2018 51.9907 67.1815 51.9645 67.164 51.9441C67.1059 51.8743 67.0695 51.8234 67.1044 51.7856C67.132 51.755 67.1757 51.7667 67.2586 51.8248C67.7168 52.091 68.5022 52.1536 68.9313 52.187C68.86 52.139 68.7655 52.0896 68.6797 52.0459C68.6171 52.0139 68.5589 51.9834 68.5153 51.9572C68.3058 51.8307 67.3488 51.4045 67.3386 51.4001C66.4993 50.971 66.0702 49.7056 66.0688 49.4918C66.0688 49.4801 66.0688 49.4438 66.0993 49.4278C66.1822 49.3841 66.252 49.4932 66.3873 49.7274C66.8164 50.3179 67.4157 50.6496 67.7386 50.8285C67.7589 50.8401 67.7778 50.8503 67.7968 50.8605C67.7589 50.8198 67.7153 50.7688 67.6644 50.7019C67.5946 50.6074 67.1088 50.0081 67.0288 49.915C67.0011 49.883 66.9473 49.8205 66.8789 49.7405C66.7466 49.5878 66.5619 49.3725 66.4193 49.2038C66.2899 49.0423 65.7939 48.1783 65.7735 48.1419L65.7095 48.0314L65.8273 48.0794C65.8477 48.0881 66.1691 48.2205 66.4789 48.3979L66.3582 48.0663C66.3582 48.0663 66.108 47.3696 66.0019 47.1368C65.8957 46.8983 65.772 46.6641 65.6338 46.4401C65.6178 46.4139 65.596 46.3776 65.5728 46.3383C65.5 46.2161 65.4011 46.0488 65.324 45.9441C65.2775 45.8816 65.2455 45.8321 65.2804 45.7972C65.3095 45.7681 65.3502 45.7812 65.4273 45.8394C65.436 45.8452 65.7502 46.0328 65.8695 46.1448C66.1066 46.3616 66.348 46.8779 66.3728 46.939L66.3786 46.9521C66.3829 46.9623 66.3873 46.9725 66.3902 46.9812C66.3131 46.7121 66.2666 46.5041 66.2622 46.4852C66.1837 45.9848 66.3393 45.4699 66.4237 45.1936C66.444 45.1267 66.46 45.0728 66.4659 45.0438C66.4688 45.0234 66.4746 44.9987 66.4804 44.971C66.5139 44.7994 66.5779 44.4794 66.5357 44.2467C66.5109 44.1128 66.4673 43.9776 66.4411 43.8976C66.4149 43.8161 66.4077 43.7928 66.4411 43.7739L66.4731 43.7565L66.4993 43.7856C66.7597 44.0678 66.844 44.5521 66.8717 44.8881C66.8789 44.7325 66.8804 44.6438 66.8804 44.6423C67.0709 43.5019 67.5771 43.083 67.6382 43.0365C67.6964 42.9608 67.7473 42.9012 67.7924 42.8474C67.9117 42.7048 67.9902 42.6118 68.0804 42.4067C68.1444 42.2641 68.172 42.2423 68.2099 42.2539C68.22 42.2568 68.2506 42.2685 68.2448 42.3179C68.2215 42.5128 68.156 42.7281 68.0557 42.939C68.0368 42.9798 67.9975 43.0394 67.9437 43.1208C67.8419 43.2765 67.6862 43.5107 67.612 43.6998C67.484 44.0139 67.5306 44.6001 67.532 44.6059V44.6147L67.5306 44.6234C67.5306 44.6234 67.4753 44.7848 67.3924 45.0234C67.3502 45.1456 67.2979 45.4088 67.2571 45.6401C67.2659 45.5994 67.2731 45.5587 67.2819 45.5179C67.3677 45.0918 67.436 44.9201 67.628 44.6438C67.7822 44.4212 67.9044 44.2452 67.9044 44.0634C67.9044 42.987 69.0535 42.1492 69.1029 42.1143L69.1131 42.1274L69.1073 42.1128C69.1073 42.1128 69.1204 42.1056 69.1306 42.0998C69.1975 42.059 69.2309 42.0372 69.26 42.0721C69.2862 42.1041 69.2557 42.1376 69.2455 42.1492C69.2309 42.1667 69.1829 42.2176 69.1277 42.2758C69.0768 42.3296 69.0186 42.3892 69.004 42.4081C68.7058 42.8198 68.5575 43.4132 68.556 43.419L68.5066 43.6503C69.2848 42.7398 70.3059 42.4503 70.3175 42.4474C70.5662 42.3267 70.6055 42.3558 70.6229 42.3688L70.6389 42.3819L70.6418 42.4052C70.6418 42.4343 70.6215 42.4561 70.5822 42.4968C70.5648 42.5143 70.5458 42.5332 70.5342 42.5492C70.4949 42.6074 70.3684 42.7427 70.236 42.8779L70.1968 42.9187C70.1706 42.9463 70.1371 42.9827 70.0993 43.0234C69.8869 43.2532 69.532 43.6387 69.3051 43.8147C69.1131 43.963 68.8106 44.1463 68.3553 44.3936C68.0033 44.5827 67.5538 45.5063 67.516 45.5878C67.5218 45.579 67.5262 45.5718 67.532 45.5645C67.532 45.563 67.8215 45.0088 68.1778 44.6132C68.4251 44.3398 68.6462 44.3267 68.8615 44.3121C68.9691 44.3048 69.0811 44.299 69.1975 44.2583C69.5131 44.1492 69.7371 43.8307 69.7633 43.7914C69.7735 43.7652 69.804 43.6939 69.8579 43.691C69.8768 43.691 69.9 43.7027 69.9088 43.7332C69.9291 43.7928 69.8171 44.0198 69.8171 44.0212C69.6004 44.379 69.4288 44.5172 69.276 44.6118C69.1946 44.6598 69.1451 44.6874 69.0957 44.715C68.9764 44.7819 68.8542 44.8518 68.2608 45.2212C67.9786 45.3958 67.7648 45.6532 67.6062 45.9048C68.0528 45.2765 68.6695 45.0307 69.0608 44.9347L69.0782 44.9303C69.1 44.923 69.1262 44.9332 69.1393 44.955C69.1553 44.9827 69.1524 45.0307 69.0971 45.083C68.9662 45.2067 68.3451 45.7216 68.3189 45.7434C68.3131 45.7492 67.5306 46.5085 67.2208 47.2954C66.9182 48.0765 67.4084 49.0568 67.4142 49.067C67.4331 49.1048 67.4549 49.1456 67.4753 49.1805C67.468 49.1485 67.4564 49.1048 67.4375 49.0481L67.4273 49.0205C67.3691 48.8474 67.3328 48.7427 67.2746 48.2321C67.2324 47.8758 67.3808 47.6343 67.4782 47.4743C67.5117 47.419 67.5408 47.371 67.5553 47.3318C67.5728 47.2765 67.6091 47.2081 67.6484 47.1354C67.6804 47.0772 67.7138 47.0161 67.74 46.9565C67.7633 46.9041 67.7953 46.7892 67.8215 46.6976C67.8564 46.5768 67.8666 46.5434 67.8768 46.5288C67.9015 46.4983 67.9277 46.5027 67.9379 46.5041C67.9829 46.5158 67.996 46.571 68.0149 46.6932C68.0178 46.7107 68.0208 46.7267 68.0222 46.7368C68.1371 47.3681 67.8462 48.0808 67.7546 48.283C67.6222 48.5768 67.6528 49.3027 67.8273 50.0067C67.9597 50.5579 68.3306 50.9434 68.524 51.1267C68.2317 50.8038 67.9611 50.3776 68.0455 49.9659C68.0455 49.9587 68.0484 49.9543 68.0484 49.9514C68.0484 49.9078 68.0717 49.1878 68.0731 49.1572L68.0426 48.8256C68.0324 48.779 67.9829 48.5201 68.0164 48.4343C68.0237 48.4139 68.0426 48.3994 68.0659 48.3979H68.0673C68.1517 48.3979 68.2957 48.6583 68.2957 48.6612C68.5924 49.3332 68.6084 49.3827 68.6942 49.9601C68.7102 50.0678 68.7131 50.1594 68.7146 50.2568C68.7175 50.459 68.7219 50.6903 68.8717 51.1325C69.164 52.0081 69.8898 52.267 69.8971 52.2685C69.9073 52.2728 69.9175 52.2772 69.9262 52.2816C69.9 52.1768 69.7968 52.0314 69.6964 51.8888C69.6135 51.7725 69.5277 51.6503 69.4666 51.5325C69.4171 51.4408 69.3168 51.3027 69.2193 51.1674C69.1437 51.0627 69.0709 50.9638 69.0259 50.891C68.9939 50.8372 68.956 50.7718 69.0084 50.7019C69.0215 50.683 69.0404 50.6612 69.0709 50.6568C69.1073 50.6525 69.1364 50.6743 69.1858 50.7107C69.1989 50.7208 69.2135 50.7325 69.2324 50.7456C69.3575 50.8401 69.788 51.2401 70.2724 51.9528C70.6535 52.5187 71.2033 52.8387 71.692 53.0772C72.0455 53.2503 72.4237 53.4248 72.428 53.4263L72.4091 53.467L72.4353 53.4307C72.4688 53.4554 72.5749 53.5398 72.5429 53.6198C72.5357 53.6387 72.5182 53.6547 72.492 53.6663C72.4426 53.6881 72.3451 53.6983 72.252 53.6983L72.2477 53.6998ZM67.2644 51.9281C67.2746 51.9398 67.2833 51.9528 67.2949 51.9659C67.4317 52.1376 67.6615 52.4241 68.0484 52.5958C68.4979 52.7936 69.1713 52.9158 69.4215 52.9274C69.4884 52.9318 69.6018 52.9347 69.7342 52.9376C70.1982 52.9492 70.5909 52.9638 70.7088 53.0016C70.7931 53.0307 70.9037 53.0888 71.0113 53.1456C71.1189 53.2023 71.2295 53.2605 71.3066 53.2852C71.4506 53.3318 71.8695 53.4918 71.8869 53.499C71.8942 53.5019 72.0208 53.5718 72.0862 53.595C72.1589 53.6241 72.4237 53.6154 72.46 53.5819C72.4571 53.5732 72.4208 53.5325 72.3815 53.5034C72.3408 53.4845 71.9829 53.3201 71.6469 53.1558C71.148 52.9128 70.5851 52.5841 70.1939 52.0023C69.7168 51.3012 69.2964 50.9085 69.1742 50.8168C69.1568 50.8038 69.1408 50.7921 69.1277 50.7819C69.1102 50.7688 69.0913 50.7543 69.0811 50.7485C69.0797 50.7499 69.0782 50.7528 69.0753 50.7558C69.0593 50.7776 69.0622 50.7907 69.0957 50.8488C69.1393 50.9187 69.2091 51.0161 69.2848 51.1194C69.3837 51.2561 69.4869 51.3972 69.5393 51.4947C69.5989 51.6081 69.6819 51.7274 69.7633 51.8423C69.9 52.0358 70.0178 52.2016 70.0164 52.3339V52.3572L69.9917 52.3761C69.98 52.3834 69.9538 52.3994 69.8593 52.3528C69.8331 52.3441 69.0913 52.0808 68.7844 51.163C68.6317 50.7078 68.6273 50.4707 68.6229 50.2612C68.6215 50.1667 68.62 50.0765 68.604 49.9761C68.5197 49.4088 68.5037 49.3608 68.2128 48.7005C68.1997 48.6758 68.1328 48.5739 68.0877 48.5187C68.0877 48.5943 68.1066 48.7252 68.124 48.8154L68.156 49.1572C68.1473 49.4219 68.1313 49.9208 68.1313 49.9558C68.1313 49.9616 68.1299 49.9718 68.1269 49.9863C68.0368 50.4299 68.4062 50.9041 68.7306 51.2227L68.7422 51.2343V51.2503C68.7451 51.2707 68.748 51.3361 68.7 51.3565C68.6477 51.3798 68.5939 51.3216 68.5735 51.2998C68.5633 51.2881 68.5444 51.2721 68.5197 51.2488C68.3713 51.1121 68.012 50.7805 67.8171 50.2816C67.8128 50.2816 67.8084 50.2816 67.8055 50.2816C67.7662 50.2816 67.7037 50.2525 67.5815 50.0416C67.5335 49.9558 67.4869 49.8525 67.4346 49.7332C67.3066 49.4481 67.148 49.0918 66.8746 48.7979C66.6549 48.5594 66.1473 48.315 65.9131 48.2118C66.0557 48.4576 66.3873 49.0263 66.4848 49.147C66.6259 49.3143 66.8106 49.5281 66.9429 49.6823C67.0113 49.7608 67.0651 49.8248 67.0928 49.8568C67.1771 49.9543 67.6586 50.5492 67.7328 50.6481C67.8229 50.7674 67.8869 50.8314 67.9393 50.8838L67.9742 50.9187C68.0499 50.9987 68.22 51.1238 68.3451 51.2139C68.4571 51.2954 68.4979 51.3259 68.5124 51.3448L68.5197 51.3536V51.3652C68.5269 51.3783 68.5284 51.3928 68.524 51.4059L68.5124 51.4379L68.4789 51.4336C68.4542 51.4307 68.444 51.4132 68.4397 51.3972C68.3422 51.3361 68.2404 51.2634 68.1313 51.1863C68.044 51.1252 67.9539 51.0598 67.8622 51.0001C67.8259 50.9754 67.7677 50.9434 67.6964 50.9041C67.3677 50.7223 66.7568 50.3848 66.3146 49.7739C66.2782 49.7114 66.2055 49.5863 66.1604 49.531C66.2011 49.8001 66.6302 50.9361 67.3778 51.3201C67.4157 51.3361 68.348 51.7521 68.5619 51.8816C68.604 51.9063 68.6608 51.9354 68.7204 51.9674C68.8309 52.0241 68.9575 52.0896 69.0317 52.1492C69.0738 52.1841 69.068 52.2161 69.0608 52.2321C69.0346 52.2874 68.9328 52.2743 68.9313 52.2728C68.5182 52.2408 67.7531 52.1812 67.2673 51.9267L67.2644 51.9281ZM66.5939 48.4619C66.652 48.4954 66.8746 48.6278 67.0055 48.7747C67.2368 49.0292 67.4389 49.3696 67.5873 49.7594C67.628 49.8656 67.6891 49.9674 67.7429 50.0474C67.7429 50.0416 67.74 50.0372 67.7386 50.0314C67.5568 49.2983 67.5291 48.5652 67.6717 48.251C67.7604 48.0532 68.044 47.3638 67.9335 46.7572C67.9306 46.7456 67.9291 46.7296 67.9262 46.7107C67.9248 46.699 67.9219 46.6845 67.9189 46.667C67.9131 46.6859 67.9073 46.7063 67.9029 46.7238C67.8753 46.8227 67.8433 46.9347 67.8186 46.9928C67.7909 47.0568 67.756 47.1194 67.724 47.179C67.6862 47.2474 67.6513 47.3114 67.6368 47.3608C67.6193 47.4103 67.5888 47.4612 67.5509 47.5208C67.4535 47.6794 67.3211 47.8961 67.3589 48.2234C67.4171 48.7252 67.4506 48.827 67.5073 48.9943L67.5175 49.0234C67.5917 49.259 67.5815 49.3172 67.5364 49.3405L67.5204 49.3492L67.4957 49.3434C67.4811 49.339 67.4389 49.3245 67.3313 49.1092C67.3109 49.0685 66.8193 48.0852 67.1349 47.2678C67.452 46.4619 68.2477 45.6896 68.2564 45.6823C68.2651 45.675 68.8557 45.1848 69.0157 45.0394C68.4949 45.1805 67.6368 45.5878 67.2891 46.7645C67.2833 46.7805 67.2644 46.8256 67.228 46.8401C67.2106 46.8474 67.1902 46.8459 67.1742 46.8387C67.1568 46.8299 67.1422 46.8154 67.1349 46.795C67.1233 46.7572 67.1422 46.7136 67.1509 46.6947C67.1757 46.603 67.4564 45.6168 68.2084 45.1499C68.8019 44.779 68.9269 44.7092 69.0462 44.6423C69.0957 44.6147 69.1437 44.587 69.2237 44.5405C69.3662 44.4518 69.5277 44.3223 69.7342 43.9805C69.7386 43.9732 69.7444 43.9616 69.7502 43.947C69.6498 44.0692 69.4622 44.2598 69.2193 44.3441C69.0913 44.3878 68.9749 44.395 68.86 44.4023C68.6448 44.4154 68.4586 44.427 68.236 44.6743C67.8869 45.0627 67.6033 45.6067 67.6004 45.611C67.4884 45.7827 67.4622 45.7768 67.4389 45.771C67.4186 45.7652 67.4055 45.7536 67.3982 45.7376C67.3764 45.6925 67.4069 45.6067 67.4273 45.5601C67.4477 45.5165 67.916 44.5303 68.3088 44.3194C68.7611 44.075 69.0593 43.8932 69.2469 43.7492C69.468 43.5761 69.82 43.195 70.0309 42.9667C70.0702 42.9245 70.1037 42.8881 70.1284 42.8605L70.1691 42.8183C70.2433 42.7412 70.4164 42.5608 70.4586 42.4998C70.4658 42.491 70.4731 42.4808 70.4819 42.4707C70.4382 42.4867 70.3888 42.5085 70.3437 42.5303C70.3233 42.5361 69.0782 42.891 68.3102 44.0518C68.2709 44.1114 68.1822 44.2248 68.1357 44.2728C68.1284 44.2816 68.1197 44.2903 68.1124 44.299C68.1008 44.3165 68.0891 44.3325 68.0804 44.3485C68.0411 44.4168 68.0208 44.4852 68.0208 44.4867L68.0019 44.5507L67.9509 44.5085C67.9306 44.491 67.9029 44.4692 68.0077 44.3005C68.0149 44.2888 68.0222 44.2772 68.0295 44.2656C68.0964 44.1623 68.2069 44.0125 68.3815 43.7928L68.4659 43.4016C68.4717 43.3768 68.6113 42.8154 68.9051 42.3907C68.5648 42.7005 67.9873 43.3347 67.9873 44.0648C67.9873 44.2728 67.8593 44.459 67.6964 44.6947C67.5117 44.9594 67.4462 45.1252 67.3633 45.5368C67.3284 45.7085 67.2935 45.8787 67.2557 46.0503C67.2586 46.1012 67.2571 46.1841 67.2193 46.2176C67.2033 46.2307 67.1844 46.235 67.164 46.2307C67.0797 46.2118 67.0913 46.0838 67.0971 46.0445C67.1015 46.011 67.2193 45.2416 67.3051 44.9958C67.3778 44.7907 67.4273 44.6408 67.4404 44.6045C67.4346 44.5245 67.3997 43.9834 67.5277 43.6678C67.6048 43.4714 67.7633 43.2314 67.868 43.0743C67.916 43.0016 67.9582 42.9376 67.9713 42.9099C68.028 42.7892 68.0731 42.6685 68.1066 42.5536C68.0295 42.7005 67.9553 42.7892 67.8579 42.9056C67.8128 42.9594 67.7619 43.0205 67.7022 43.0976L67.6935 43.1063C67.6935 43.1063 67.1582 43.5092 66.9662 44.6525C66.9662 44.6525 66.9589 45.0961 66.8935 45.7768C66.8455 46.2772 66.8877 46.7499 66.9429 47.0248C66.9488 47.0496 66.9546 47.0699 66.9604 47.0874C66.9677 47.1034 66.9735 47.1194 66.9793 47.1325C66.988 47.1499 66.9968 47.1616 67.0026 47.1703C67.0142 47.1863 67.0259 47.2052 67.02 47.2299C67.0142 47.2547 66.9924 47.2648 66.9837 47.2692L66.9619 47.2808L66.9313 47.2721L66.9095 47.2576V47.227C66.9124 47.211 66.9066 47.1892 66.8993 47.1674C66.8935 47.1543 66.8862 47.1383 66.8789 47.1194C66.8164 46.9885 66.7408 46.7514 66.7408 46.3645C66.7408 45.755 66.7931 45.2561 66.7946 45.2518C66.7946 45.2459 66.8193 44.5492 66.5866 44.075C66.5997 44.1245 66.6128 44.1783 66.6229 44.2321C66.668 44.4808 66.6026 44.811 66.5677 44.9899C66.5618 45.0176 66.5575 45.0408 66.5546 45.0612C66.5488 45.0947 66.5328 45.147 66.5109 45.2212C66.4295 45.4903 66.2768 45.9921 66.3509 46.4707C66.3524 46.4779 66.5502 47.3623 66.812 47.8859C66.844 47.9427 66.8717 47.9863 66.8949 48.0154C66.9837 48.1259 66.9909 48.1347 66.956 48.1638C66.9211 48.1928 66.9168 48.1885 66.8048 48.0576C66.7829 48.0212 66.7626 47.9819 66.7422 47.9412C66.6011 47.6968 66.4106 47.2576 66.2986 46.987L66.2928 46.9725C66.2724 46.9201 66.0353 46.4139 65.8113 46.2103C65.7269 46.1318 65.5291 46.0052 65.4331 45.9456C65.5058 46.0503 65.5873 46.1899 65.6498 46.2947C65.6731 46.3339 65.6935 46.3688 65.7095 46.395C65.8491 46.6219 65.9757 46.859 66.0833 47.1019C66.1909 47.3376 66.4324 48.0081 66.4426 48.0372L66.5968 48.4634L66.5939 48.4619Z" fill="black"/>
<path d="M78.0282 46.1189C78.1256 46.1552 78.1693 46.4461 78.1693 46.4461C78.1693 46.4461 78.1605 46.2789 78.1605 46.1974C78.1605 46.116 78.1198 45.8047 78.1198 45.8047L78.0325 45.8672C77.9278 45.9501 77.8711 46.097 77.8711 46.097C77.8711 46.097 77.9307 46.0869 78.0267 46.1203" fill="#009B3A"/>
<path d="M78.1139 46.4547C78.0935 46.3194 78.0426 46.1841 78.0077 46.171C77.9292 46.1434 77.8782 46.1507 77.8782 46.1507L77.7852 46.1638L77.8186 46.0765C77.8186 46.0765 77.8826 45.915 77.9975 45.8248L78.1619 45.707L78.1735 45.7972C78.175 45.8103 78.2142 46.1128 78.2142 46.1972C78.2142 46.2816 78.223 46.443 78.223 46.443L78.1139 46.4532V46.4547ZM77.9568 46.0445C77.9815 46.0489 78.0121 46.0561 78.0441 46.0663C78.0644 46.0736 78.0819 46.0867 78.0979 46.1027C78.0921 46.0416 78.0833 45.9645 78.0761 45.9005L78.0644 45.9092C78.0179 45.9456 77.9815 45.9994 77.9568 46.043V46.0445Z" fill="black"/>
</g>
<defs>
<clipPath id="clip0_6_8987">
<rect width="144" height="96" fill="white"/>
</clipPath>
</defs>
</svg>
